<svg width="414" height="459" viewBox="0 0 414 459" fill="none" xmlns="http://www.w3.org/2000/svg">
<g opacity="0.4" clip-path="url(#clip0_18_215)">
<rect width="459" height="414" transform="translate(0 459) rotate(-90)" fill="white"/>
<g filter="url(#filter0_d_18_215)">
<path fill-rule="evenodd" clip-rule="evenodd" d="M210.446 350.176L213.631 334.622C216.816 319.068 223.187 287.96 160.821 280.279C98.4555 272.598 -32.6461 288.344 -65.5533 270.622C-98.4605 252.901 -33.1733 201.713 -26.8028 170.605C-20.4323 139.496 -72.9784 128.469 -99.2514 122.955L-125.524 117.441L304.52 -29.1298L311.154 -16.9225C317.788 -4.71517 331.057 19.6995 344.325 44.1142C357.593 68.5289 370.862 92.9435 384.13 117.358C397.398 141.773 410.667 166.188 423.935 190.602C437.203 215.017 450.472 239.432 457.106 251.639L463.74 263.846L210.446 350.176Z" fill="white"/>
<path fill-rule="evenodd" clip-rule="evenodd" d="M210.446 350.176L213.631 334.622C216.816 319.068 223.187 287.96 160.821 280.279C98.4555 272.598 -32.6461 288.344 -65.5533 270.622C-98.4605 252.901 -33.1733 201.713 -26.8028 170.605C-20.4323 139.496 -72.9784 128.469 -99.2514 122.955L-125.524 117.441L304.52 -29.1298L311.154 -16.9225C317.788 -4.71517 331.057 19.6995 344.325 44.1142C357.593 68.5289 370.862 92.9435 384.13 117.358C397.398 141.773 410.667 166.188 423.935 190.602C437.203 215.017 450.472 239.432 457.106 251.639L463.74 263.846L210.446 350.176Z" stroke="#3E94FE"/>
</g>
<g filter="url(#filter1_i_18_215)">
<path fill-rule="evenodd" clip-rule="evenodd" d="M53.3338 213.707L59.2729 226.525C65.212 239.344 77.0902 264.98 87.012 290.425C96.9339 315.869 104.899 341.121 91.3456 364.261C77.7918 387.401 42.7186 408.429 36.99 432.337C31.2614 456.245 54.8774 483.034 66.6854 496.428L78.4935 509.822L-104.584 491.851L-102.698 479.8C-100.812 467.75 -97.0399 443.65 -93.2676 419.55C-89.4953 395.45 -85.723 371.35 -81.9507 347.25C-78.1784 323.15 -74.4062 299.049 -70.6339 274.949C-66.8616 250.849 -63.0893 226.749 -61.2031 214.699L-59.317 202.649L53.3338 213.707Z" fill="white"/>
</g>
<path fill-rule="evenodd" clip-rule="evenodd" d="M53.3338 213.707L59.2729 226.525C65.212 239.344 77.0902 264.98 87.012 290.425C96.9339 315.869 104.899 341.121 91.3456 364.261C77.7918 387.401 42.7186 408.429 36.99 432.337C31.2614 456.245 54.8774 483.034 66.6854 496.428L78.4935 509.822L-104.584 491.851L-102.698 479.8C-100.812 467.75 -97.0399 443.65 -93.2676 419.55C-89.4953 395.45 -85.723 371.35 -81.9507 347.25C-78.1784 323.15 -74.4062 299.049 -70.6339 274.949C-66.8616 250.849 -63.0893 226.749 -61.2031 214.699L-59.317 202.649L53.3338 213.707Z" stroke="#3E94FE"/>
<g filter="url(#filter2_i_18_215)">
<path fill-rule="evenodd" clip-rule="evenodd" d="M-127.79 231.913L-101.535 233.518C-75.2798 235.122 -22.7694 238.331 27.9628 239.02C78.6951 239.709 127.649 237.879 157.043 208.336C186.437 178.792 196.271 121.536 232.778 102.07C269.284 82.6042 332.464 100.929 364.054 110.092L395.643 119.254L229.235 -116.519L210.092 -108.045C190.95 -99.5721 152.665 -82.6257 114.38 -65.6793C76.0952 -48.7329 37.8104 -31.7864 -0.474548 -14.84C-38.7595 2.1064 -77.0444 19.0528 -115.329 35.9993C-153.614 52.9457 -191.899 69.8921 -211.042 78.3653L-230.184 86.8385L-127.79 231.913Z" fill="white"/>
</g>
<path fill-rule="evenodd" clip-rule="evenodd" d="M-127.79 231.913L-101.535 233.518C-75.2798 235.122 -22.7694 238.331 27.9628 239.02C78.6951 239.709 127.649 237.879 157.043 208.336C186.437 178.792 196.271 121.536 232.778 102.07C269.284 82.6042 332.464 100.929 364.054 110.092L395.643 119.254L229.235 -116.519L210.092 -108.045C190.95 -99.5721 152.665 -82.6257 114.38 -65.6793C76.0952 -48.7329 37.8104 -31.7864 -0.474548 -14.84C-38.7595 2.1064 -77.0444 19.0528 -115.329 35.9993C-153.614 52.9457 -191.899 69.8921 -211.042 78.3653L-230.184 86.8385L-127.79 231.913Z" stroke="#3E94FE"/>
<g filter="url(#filter3_d_18_215)">
<path fill-rule="evenodd" clip-rule="evenodd" d="M-6.75271 621.749L18.5063 610.124C43.7653 598.499 94.2833 575.249 115.464 526.589C136.644 477.929 128.487 403.859 162.241 366.089C195.995 328.319 271.659 326.849 322.177 303.598C372.695 280.348 398.067 235.318 410.753 212.803L423.439 190.288L606.987 349.263L585.919 364.518C564.851 379.773 522.715 410.283 480.58 440.793C438.444 471.303 396.308 501.813 354.172 532.323C312.036 562.834 269.9 593.344 227.764 623.854C185.628 654.364 143.493 684.874 122.425 700.129L101.357 715.384L-6.75271 621.749Z" fill="white"/>
<path fill-rule="evenodd" clip-rule="evenodd" d="M-6.75271 621.749L18.5063 610.124C43.7653 598.499 94.2833 575.249 115.464 526.589C136.644 477.929 128.487 403.859 162.241 366.089C195.995 328.319 271.659 326.849 322.177 303.598C372.695 280.348 398.067 235.318 410.753 212.803L423.439 190.288L606.987 349.263L585.919 364.518C564.851 379.773 522.715 410.283 480.58 440.793C438.444 471.303 396.308 501.813 354.172 532.323C312.036 562.834 269.9 593.344 227.764 623.854C185.628 654.364 143.493 684.874 122.425 700.129L101.357 715.384L-6.75271 621.749Z" stroke="#3E94FE"/>
</g>
<g filter="url(#filter4_d_18_215)">
<path fill-rule="evenodd" clip-rule="evenodd" d="M253.632 -80.1414L235.781 -71.0572C217.931 -61.973 182.23 -43.8047 168.857 -7.95429C155.484 27.8961 164.439 81.4285 141.497 109.701C118.555 137.973 63.7163 140.986 28.0155 159.154C-7.68529 177.322 -24.2479 210.647 -32.5292 227.309L-40.8106 243.971L-180.504 133.344L-165.843 121.734C-151.183 110.124 -121.861 86.9036 -92.5397 63.6832C-63.2183 40.4629 -33.8969 17.2425 -4.57549 -5.97789C24.7459 -29.1983 54.0673 -52.4186 83.3887 -75.639C112.71 -98.8594 142.032 -122.08 156.692 -133.69L171.353 -145.3L253.632 -80.1414Z" fill="white"/>
</g>
<g filter="url(#filter5_i_18_215)">
<path fill-rule="evenodd" clip-rule="evenodd" d="M299.869 -35.0941L290.804 -11.455C281.739 12.1841 263.608 59.4622 249.047 106.197C234.485 152.932 223.492 199.124 251.755 239.341C280.017 279.558 347.536 313.801 361.524 356.19C375.512 398.58 335.969 449.117 316.198 474.386L296.426 499.654L630.397 448.824L625.187 427.357C619.978 405.891 609.559 362.958 599.139 320.025C588.72 277.092 578.301 234.16 567.882 191.227C557.462 148.294 547.043 105.361 536.624 62.428C526.205 19.4951 515.786 -23.4378 510.576 -44.9042L505.366 -66.3706L299.869 -35.0941Z" fill="white"/>
</g>
<path fill-rule="evenodd" clip-rule="evenodd" d="M299.869 -35.0941L290.804 -11.455C281.739 12.1841 263.608 59.4622 249.047 106.197C234.485 152.932 223.492 199.124 251.755 239.341C280.017 279.558 347.536 313.801 361.524 356.19C375.512 398.58 335.969 449.117 316.198 474.386L296.426 499.654L630.397 448.824L625.187 427.357C619.978 405.891 609.559 362.958 599.139 320.025C588.72 277.092 578.301 234.16 567.882 191.227C557.462 148.294 547.043 105.361 536.624 62.428C526.205 19.4951 515.786 -23.4378 510.576 -44.9042L505.366 -66.3706L299.869 -35.0941Z" stroke="#3E94FE"/>
<g filter="url(#filter6_d_18_215)">
<path fill-rule="evenodd" clip-rule="evenodd" d="M445.618 401.656L446.119 383.094C446.621 364.533 447.624 327.41 424.884 292.648C402.144 257.887 355.661 225.487 343.097 189.714C330.532 153.94 351.887 114.793 352.89 77.6705C353.893 40.5476 334.545 5.44892 324.871 -12.1004L315.197 -29.6498L463.745 -44.4248L466.636 -26.2007C469.526 -7.97665 475.306 28.4715 481.087 64.9197C486.867 101.368 492.648 137.816 498.429 174.264C504.209 210.712 509.99 247.16 515.77 283.609C521.551 320.057 527.331 356.505 530.222 374.729L533.112 392.953L445.618 401.656Z" fill="white"/>
</g>
</g>
<defs>
<filter id="filter0_d_18_215" x="-187.321" y="-89.7305" width="711.773" height="500.667" filterUnits="userSpaceOnUse" color-interpolation-filters="sRGB">
<feFlood flood-opacity="0" result="BackgroundImageFix"/>
<feColorMatrix in="SourceAlpha" type="matrix" values="0 0 0 0 0 0 0 0 0 0 0 0 0 0 0 0 0 0 127 0" result="hardAlpha"/>
<feOffset/>
<feGaussianBlur stdDeviation="30"/>
<feColorMatrix type="matrix" values="0 0 0 0 0.239216 0 0 0 0 0.443137 0 0 0 0 0.686275 0 0 0 0.2 0"/>
<feBlend mode="multiply" in2="BackgroundImageFix" result="effect1_dropShadow_18_215"/>
<feBlend mode="normal" in="SourceGraphic" in2="effect1_dropShadow_18_215" result="shape"/>
</filter>
<filter id="filter1_i_18_215" x="-105.159" y="202.106" width="204.211" height="308.339" filterUnits="userSpaceOnUse" color-interpolation-filters="sRGB">
<feFlood flood-opacity="0" result="BackgroundImageFix"/>
<feBlend mode="normal" in="SourceGraphic" in2="BackgroundImageFix" result="shape"/>
<feColorMatrix in="SourceAlpha" type="matrix" values="0 0 0 0 0 0 0 0 0 0 0 0 0 0 0 0 0 0 127 0" result="hardAlpha"/>
<feOffset/>
<feGaussianBlur stdDeviation="30"/>
<feComposite in2="hardAlpha" operator="arithmetic" k2="-1" k3="1"/>
<feColorMatrix type="matrix" values="0 0 0 0 0.23776 0 0 0 0 0.444641 0 0 0 0 0.6875 0 0 0 0.2 0"/>
<feBlend mode="multiply" in2="shape" result="effect1_innerShadow_18_215"/>
</filter>
<filter id="filter2_i_18_215" x="-230.93" y="-117.129" width="627.742" height="356.712" filterUnits="userSpaceOnUse" color-interpolation-filters="sRGB">
<feFlood flood-opacity="0" result="BackgroundImageFix"/>
<feBlend mode="normal" in="SourceGraphic" in2="BackgroundImageFix" result="shape"/>
<feColorMatrix in="SourceAlpha" type="matrix" values="0 0 0 0 0 0 0 0 0 0 0 0 0 0 0 0 0 0 127 0" result="hardAlpha"/>
<feOffset/>
<feGaussianBlur stdDeviation="30"/>
<feComposite in2="hardAlpha" operator="arithmetic" k2="-1" k3="1"/>
<feColorMatrix type="matrix" values="0 0 0 0 0.23776 0 0 0 0 0.444641 0 0 0 0 0.6875 0 0 0 0.2 0"/>
<feBlend mode="multiply" in2="shape" result="effect1_innerShadow_18_215"/>
</filter>
<filter id="filter3_d_18_215" x="-67.6247" y="129.5" width="735.395" height="646.505" filterUnits="userSpaceOnUse" color-interpolation-filters="sRGB">
<feFlood flood-opacity="0" result="BackgroundImageFix"/>
<feColorMatrix in="SourceAlpha" type="matrix" values="0 0 0 0 0 0 0 0 0 0 0 0 0 0 0 0 0 0 127 0" result="hardAlpha"/>
<feOffset/>
<feGaussianBlur stdDeviation="30"/>
<feColorMatrix type="matrix" values="0 0 0 0 0.239216 0 0 0 0 0.443137 0 0 0 0 0.686275 0 0 0 0.2 0"/>
<feBlend mode="multiply" in2="BackgroundImageFix" result="effect1_dropShadow_18_215"/>
<feBlend mode="normal" in="SourceGraphic" in2="effect1_dropShadow_18_215" result="shape"/>
</filter>
<filter id="filter4_d_18_215" x="-240.504" y="-205.3" width="554.136" height="509.271" filterUnits="userSpaceOnUse" color-interpolation-filters="sRGB">
<feFlood flood-opacity="0" result="BackgroundImageFix"/>
<feColorMatrix in="SourceAlpha" type="matrix" values="0 0 0 0 0 0 0 0 0 0 0 0 0 0 0 0 0 0 127 0" result="hardAlpha"/>
<feOffset/>
<feGaussianBlur stdDeviation="30"/>
<feColorMatrix type="matrix" values="0 0 0 0 0.239216 0 0 0 0 0.443137 0 0 0 0 0.686275 0 0 0 0.2 0"/>
<feBlend mode="multiply" in2="BackgroundImageFix" result="effect1_dropShadow_18_215"/>
<feBlend mode="normal" in="SourceGraphic" in2="effect1_dropShadow_18_215" result="shape"/>
</filter>
<filter id="filter5_i_18_215" x="233.687" y="-66.9316" width="397.322" height="567.272" filterUnits="userSpaceOnUse" color-interpolation-filters="sRGB">
<feFlood flood-opacity="0" result="BackgroundImageFix"/>
<feBlend mode="normal" in="SourceGraphic" in2="BackgroundImageFix" result="shape"/>
<feColorMatrix in="SourceAlpha" type="matrix" values="0 0 0 0 0 0 0 0 0 0 0 0 0 0 0 0 0 0 127 0" result="hardAlpha"/>
<feOffset/>
<feGaussianBlur stdDeviation="30"/>
<feComposite in2="hardAlpha" operator="arithmetic" k2="-1" k3="1"/>
<feColorMatrix type="matrix" values="0 0 0 0 0.23776 0 0 0 0 0.444641 0 0 0 0 0.6875 0 0 0 0.2 0"/>
<feBlend mode="multiply" in2="shape" result="effect1_innerShadow_18_215"/>
</filter>
<filter id="filter6_d_18_215" x="255.197" y="-104.425" width="337.915" height="566.081" filterUnits="userSpaceOnUse" color-interpolation-filters="sRGB">
<feFlood flood-opacity="0" result="BackgroundImageFix"/>
<feColorMatrix in="SourceAlpha" type="matrix" values="0 0 0 0 0 0 0 0 0 0 0 0 0 0 0 0 0 0 127 0" result="hardAlpha"/>
<feOffset/>
<feGaussianBlur stdDeviation="30"/>
<feColorMatrix type="matrix" values="0 0 0 0 0.239216 0 0 0 0 0.443137 0 0 0 0 0.686275 0 0 0 0.2 0"/>
<feBlend mode="multiply" in2="BackgroundImageFix" result="effect1_dropShadow_18_215"/>
<feBlend mode="normal" in="SourceGraphic" in2="effect1_dropShadow_18_215" result="shape"/>
</filter>
<clipPath id="clip0_18_215">
<rect width="459" height="414" fill="white" transform="translate(0 459) rotate(-90)"/>
</clipPath>
</defs>
</svg>
