<svg width="113" height="18" viewBox="0 0 113 18" fill="none" xmlns="http://www.w3.org/2000/svg">
<path d="M7.50001 0.9375C6.13298 0.939113 4.8224 1.48288 3.85577 2.44951C2.88913 3.41615 2.34537 4.72672 2.34376 6.09375C2.34212 7.21089 2.70703 8.29771 3.38251 9.1875C3.38251 9.1875 3.52313 9.37266 3.5461 9.39937L7.50001 14.0625L11.4558 9.39703C11.4764 9.37219 11.6175 9.1875 11.6175 9.1875L11.618 9.18609C12.2931 8.29669 12.6579 7.21037 12.6563 6.09375C12.6546 4.72672 12.1109 3.41615 11.1442 2.44951C10.1776 1.48288 8.86703 0.939113 7.50001 0.9375ZM7.50001 7.96875C7.12917 7.96875 6.76665 7.85878 6.45831 7.65276C6.14997 7.44673 5.90965 7.15389 5.76773 6.81128C5.62582 6.46867 5.58869 6.09167 5.66103 5.72796C5.73338 5.36424 5.91196 5.03015 6.17418 4.76792C6.4364 4.5057 6.7705 4.32712 7.13421 4.25478C7.49793 4.18243 7.87493 4.21956 8.21754 4.36148C8.56015 4.50339 8.85298 4.74371 9.05901 5.05206C9.26504 5.3604 9.37501 5.72291 9.37501 6.09375C9.37439 6.59084 9.17664 7.06739 8.82515 7.41889C8.47365 7.77039 7.9971 7.96813 7.50001 7.96875Z" fill="#12171E" fill-opacity="0.654531"/>
<path d="M30.105 8.9V10.13H28.95C28.72 11.4 28.175 12.405 27.315 13.145C26.455 13.875 25.335 14.24 23.955 14.24C22.315 14.24 21.005 13.725 20.025 12.695C19.045 11.665 18.56 10.37 18.57 8.81C18.57 7.24 19.05 5.925 20.01 4.865C20.98 3.795 22.32 3.26 24.03 3.26C25.24 3.26 26.26 3.565 27.09 4.175C27.92 4.785 28.405 5.56 28.545 6.5H27.045C26.895 5.9 26.55 5.415 26.01 5.045C25.48 4.675 24.82 4.49 24.03 4.49C22.73 4.49 21.73 4.895 21.03 5.705C20.34 6.515 19.995 7.55 19.995 8.81C19.995 10.01 20.35 11.01 21.06 11.81C21.78 12.61 22.745 13.01 23.955 13.01C24.935 13.01 25.725 12.765 26.325 12.275C26.935 11.775 27.335 11.06 27.525 10.13H24.975V8.9H30.105ZM32.2215 5.9C31.9115 5.9 31.6565 5.8 31.4565 5.6C31.2565 5.4 31.1565 5.15 31.1565 4.85C31.1565 4.55 31.2565 4.3 31.4565 4.1C31.6565 3.89 31.9115 3.785 32.2215 3.785C32.5215 3.785 32.7715 3.89 32.9715 4.1C33.1715 4.3 33.2715 4.55 33.2715 4.85C33.2715 5.15 33.1715 5.4 32.9715 5.6C32.7715 5.8 32.5215 5.9 32.2215 5.9ZM31.5615 14V7.085H32.8665V14H31.5615ZM37.4461 14.18C36.5761 14.18 35.8761 13.965 35.3461 13.535C34.8261 13.095 34.5661 12.56 34.5661 11.93H35.8561C35.8561 12.28 36.0061 12.57 36.3061 12.8C36.6061 13.02 37.0061 13.13 37.5061 13.13C37.8961 13.13 38.2061 13.04 38.4361 12.86C38.6661 12.68 38.7811 12.435 38.7811 12.125C38.7811 11.635 38.5561 11.335 38.1061 11.225L36.2611 10.745C35.2711 10.475 34.7761 9.855 34.7761 8.885C34.7761 8.315 35.0161 7.845 35.4961 7.475C35.9761 7.095 36.6011 6.905 37.3711 6.905C38.2111 6.905 38.8611 7.1 39.3211 7.49C39.7911 7.87 40.0261 8.37 40.0261 8.99H38.7361C38.7361 8.66 38.6111 8.4 38.3611 8.21C38.1111 8.01 37.7611 7.91 37.3111 7.91C36.9511 7.91 36.6511 7.995 36.4111 8.165C36.1811 8.325 36.0661 8.545 36.0661 8.825C36.0661 9.295 36.3211 9.59 36.8311 9.71L38.5561 10.19C39.0461 10.32 39.4261 10.55 39.6961 10.88C39.9661 11.21 40.1011 11.585 40.1011 12.005C40.1011 12.665 39.8661 13.195 39.3961 13.595C38.9261 13.985 38.2761 14.18 37.4461 14.18ZM44.919 14.18C43.819 14.18 42.944 13.835 42.294 13.145C41.644 12.445 41.319 11.575 41.319 10.535C41.319 9.495 41.644 8.63 42.294 7.94C42.944 7.25 43.819 6.905 44.919 6.905C46.009 6.905 46.879 7.255 47.529 7.955C48.189 8.645 48.519 9.505 48.519 10.535C48.519 11.575 48.189 12.445 47.529 13.145C46.879 13.835 46.009 14.18 44.919 14.18ZM43.224 12.32C43.644 12.78 44.209 13.01 44.919 13.01C45.629 13.01 46.189 12.78 46.599 12.32C47.009 11.85 47.214 11.255 47.214 10.535C47.214 9.825 47.009 9.24 46.599 8.78C46.189 8.31 45.629 8.075 44.919 8.075C44.209 8.075 43.644 8.31 43.224 8.78C42.814 9.24 42.609 9.83 42.609 10.55C42.609 11.26 42.814 11.85 43.224 12.32ZM48.986 14L53.036 8.195H49.271V7.085H55.226L51.161 12.905H55.031V14H48.986ZM57.1825 5.9C56.8725 5.9 56.6175 5.8 56.4175 5.6C56.2175 5.4 56.1175 5.15 56.1175 4.85C56.1175 4.55 56.2175 4.3 56.4175 4.1C56.6175 3.89 56.8725 3.785 57.1825 3.785C57.4825 3.785 57.7325 3.89 57.9325 4.1C58.1325 4.3 58.2325 4.55 58.2325 4.85C58.2325 5.15 58.1325 5.4 57.9325 5.6C57.7325 5.8 57.4825 5.9 57.1825 5.9ZM56.5225 14V7.085H57.8275V14H56.5225ZM64.341 15.8C64.141 15.8 63.971 15.785 63.831 15.755V15.125C63.951 15.145 64.136 15.155 64.386 15.155C64.796 15.155 65.076 14.985 65.226 14.645C65.356 14.435 65.421 14.165 65.421 13.835C65.291 13.995 65.086 14.075 64.806 14.075C64.516 14.075 64.276 13.98 64.086 13.79C63.896 13.6 63.801 13.35 63.801 13.04C63.801 12.73 63.901 12.475 64.101 12.275C64.311 12.075 64.571 11.975 64.881 11.975C65.241 11.975 65.556 12.125 65.826 12.425C66.106 12.715 66.246 13.135 66.246 13.685C66.246 14.315 66.076 14.825 65.736 15.215C65.406 15.605 64.941 15.8 64.341 15.8ZM79.728 3.5L74.853 8.69L79.728 14H77.958L73.563 9.11V14H72.198V3.5H73.563V8.42L77.973 3.5H79.728ZM81.5868 5.9C81.2768 5.9 81.0218 5.8 80.8218 5.6C80.6218 5.4 80.5218 5.15 80.5218 4.85C80.5218 4.55 80.6218 4.3 80.8218 4.1C81.0218 3.89 81.2768 3.785 81.5868 3.785C81.8868 3.785 82.1368 3.89 82.3368 4.1C82.5368 4.3 82.6368 4.55 82.6368 4.85C82.6368 5.15 82.5368 5.4 82.3368 5.6C82.1368 5.8 81.8868 5.9 81.5868 5.9ZM80.9268 14V7.085H82.2318V14H80.9268ZM89.8113 7.085H91.1013V13.82C91.1013 15.14 90.7013 16.11 89.9013 16.73C89.3213 17.16 88.5263 17.375 87.5163 17.375C86.5063 17.375 85.6913 17.15 85.0713 16.7C84.4113 16.24 84.0663 15.63 84.0363 14.87H85.4013C85.4613 15.29 85.6663 15.63 86.0163 15.89C86.3763 16.15 86.8763 16.28 87.5163 16.28C89.0463 16.28 89.8113 15.49 89.8113 13.91V12.785C89.6013 13.215 89.2663 13.555 88.8063 13.805C88.3463 14.055 87.8613 14.18 87.3513 14.18C86.3113 14.18 85.4813 13.835 84.8613 13.145C84.2413 12.455 83.9313 11.59 83.9313 10.55C83.9313 9.51 84.2513 8.645 84.8913 7.955C85.5413 7.255 86.3713 6.905 87.3813 6.905C87.9113 6.905 88.3913 7.03 88.8213 7.28C89.2613 7.53 89.5913 7.87 89.8113 8.3V7.085ZM87.5313 13.01C88.2413 13.01 88.8063 12.775 89.2263 12.305C89.6563 11.835 89.8713 11.25 89.8713 10.55C89.8713 9.85 89.6563 9.265 89.2263 8.795C88.8063 8.315 88.2413 8.075 87.5313 8.075C86.8513 8.075 86.2963 8.31 85.8663 8.78C85.4363 9.24 85.2213 9.83 85.2213 10.55C85.2213 11.26 85.4363 11.85 85.8663 12.32C86.2963 12.78 86.8513 13.01 87.5313 13.01ZM96.2136 14.18C95.1436 14.18 94.3036 13.84 93.6936 13.16C93.0936 12.48 92.7936 11.61 92.7936 10.55C92.7936 9.5 93.1036 8.63 93.7236 7.94C94.3536 7.25 95.1936 6.905 96.2436 6.905C96.7836 6.905 97.2686 7.03 97.6986 7.28C98.1286 7.53 98.4536 7.87 98.6736 8.3V7.085H99.9636V14H98.6736V12.785C98.4536 13.205 98.1186 13.545 97.6686 13.805C97.2186 14.055 96.7336 14.18 96.2136 14.18ZM96.3936 13.01C97.1236 13.01 97.6936 12.775 98.1036 12.305C98.5236 11.825 98.7336 11.24 98.7336 10.55C98.7336 9.85 98.5236 9.265 98.1036 8.795C97.6936 8.315 97.1236 8.075 96.3936 8.075C95.6936 8.075 95.1336 8.31 94.7136 8.78C94.2936 9.24 94.0836 9.83 94.0836 10.55C94.0836 11.27 94.2936 11.86 94.7136 12.32C95.1336 12.78 95.6936 13.01 96.3936 13.01ZM102.211 14V3.5H103.516V14H102.211ZM106.431 5.9C106.121 5.9 105.866 5.8 105.666 5.6C105.466 5.4 105.366 5.15 105.366 4.85C105.366 4.55 105.466 4.3 105.666 4.1C105.866 3.89 106.121 3.785 106.431 3.785C106.731 3.785 106.981 3.89 107.181 4.1C107.381 4.3 107.481 4.55 107.481 4.85C107.481 5.15 107.381 5.4 107.181 5.6C106.981 5.8 106.731 5.9 106.431 5.9ZM105.771 14V7.085H107.076V14H105.771Z" fill="#12171E" fill-opacity="0.654531"/>
</svg>
