<svg width="36" height="36" viewBox="0 0 36 36" fill="none" xmlns="http://www.w3.org/2000/svg">
<rect width="36" height="36" rx="6" fill="#ABEDDF" fill-opacity="0.2"/>
<g clip-path="url(#clip0_22_307)">
<path d="M25.7203 27.1262C23.6391 28.884 20.9391 29.9996 18 29.9996C13.6266 29.9996 9.78744 27.5902 7.70624 24.0746L8.48539 20.483L11.9391 19.8418C12.7406 22.4293 15.1593 24.3277 18 24.3277C19.3781 24.3277 20.6578 23.8918 21.7125 23.1184L25.0312 23.6246L25.7203 27.1262Z" fill="#59C36A"/>
<path d="M25.7203 27.127L25.0312 23.6254L21.7125 23.1191C20.6578 23.8926 19.3781 24.3285 18 24.3285V30.0004C20.9391 30.0004 23.6391 28.8848 25.7203 27.127Z" fill="#3E94FE" fill-opacity="0.2"/>
<path d="M11.6719 17.9998C11.6719 18.6466 11.7703 19.2654 11.9391 19.842L7.70625 24.0748C6.65156 22.3029 6 20.2216 6 17.9998C6 15.7779 6.65156 13.6967 7.70625 11.9248L11.1034 12.5095L11.9391 16.1576C11.7703 16.7341 11.6719 17.3529 11.6719 17.9998Z" fill="#FFDA2D"/>
<path d="M30 18C30 21.6562 28.3079 24.9328 25.7203 27.1266L21.7125 23.1188C22.5281 22.5281 23.2172 21.7406 23.6672 20.8125H18C17.6062 20.8125 17.2969 20.5031 17.2969 20.1094V15.8906C17.2969 15.4968 17.6062 15.1875 18 15.1875H29.1C29.4375 15.1875 29.7328 15.4265 29.7891 15.764C29.9297 16.4953 30 17.2546 30 18Z" fill="#4086F4"/>
<path d="M23.6672 20.8125C23.2172 21.7406 22.5281 22.5281 21.7125 23.1188L25.7203 27.1266C28.3079 24.9328 30 21.6562 30 18C30 17.2546 29.9297 16.4953 29.789 15.764C29.7328 15.4265 29.4375 15.1875 29.1 15.1875H18V20.8125H23.6672Z" fill="#4175DF"/>
<path d="M25.9172 9.35152C25.9312 9.54839 25.8469 9.73125 25.7203 9.87183L22.7109 12.8671C22.4719 13.1203 22.0782 13.1484 21.7969 12.9375C20.6859 12.1078 19.3781 11.6719 18 11.6719C15.1593 11.6719 12.7406 13.5703 11.9391 16.1578L7.70624 11.925C9.78744 8.40938 13.6266 6 18 6C20.7984 6 23.5266 7.03125 25.6641 8.8312C25.8187 8.95781 25.9031 9.15464 25.9172 9.35152Z" fill="#FF641A"/>
<path d="M21.7969 12.9375C22.0781 13.1484 22.4718 13.1203 22.7109 12.8671L25.7203 9.87183C25.8469 9.73125 25.9313 9.54844 25.9172 9.35152C25.903 9.15459 25.8187 8.95781 25.664 8.8312C23.5266 7.03125 20.7984 6 18 6V11.6719C19.3781 11.6719 20.6859 12.1078 21.7969 12.9375Z" fill="#F03800"/>
</g>
<defs>
<clipPath id="clip0_22_307">
<rect width="24" height="24" fill="white" transform="translate(6 6)"/>
</clipPath>
</defs>
</svg>
