<svg width="340" height="102" viewBox="0 0 340 102" fill="none" xmlns="http://www.w3.org/2000/svg">
<path d="M308.291 39.0406C306.315 38.3207 304.227 37.9594 302.124 37.9738C295.324 37.9738 290.522 41.3993 290.488 46.3166C290.445 49.9291 293.9 51.9648 296.514 53.1718C299.196 54.4128 300.093 55.1948 300.084 56.3041C300.067 57.9913 297.942 58.7563 295.966 58.7563C293.25 58.7563 291.767 58.3781 289.485 57.4303L288.639 57.0351L287.674 62.6961C289.327 63.3846 292.307 63.9753 295.384 64.0263C302.613 64.0263 307.339 60.6221 307.394 55.3903C307.454 52.5046 305.584 50.3243 301.648 48.5223C299.255 47.3536 297.772 46.5716 297.772 45.3858C297.772 44.3361 299.043 43.2141 301.699 43.2141C303.467 43.1713 305.224 43.503 306.854 44.1873L307.492 44.4721L308.457 39.0023L308.291 39.0406ZM325.937 38.4328H320.624C318.971 38.4328 317.726 38.8876 317.003 40.5281L306.786 63.6736H314.016L315.461 59.8783L324.284 59.8868C324.492 60.7751 325.129 63.6736 325.129 63.6736H331.504L325.937 38.4328ZM280.708 38.2203H287.598L283.288 63.4738H276.407L280.708 38.2118V38.2203ZM263.22 52.1391L263.934 55.6453L270.666 38.4328H277.963L267.121 63.6396H259.841L253.891 42.2961C253.794 41.9441 253.568 41.6419 253.258 41.4503C251.113 40.3425 248.841 39.5018 246.492 38.9471L246.585 38.4158H257.673C259.178 38.4753 260.389 38.9471 260.793 40.5536L263.215 52.1518V52.1391H263.22ZM317.437 54.7146L320.182 47.6511C320.148 47.7276 320.748 46.1933 321.096 45.2456L321.568 47.4258L323.162 54.7103H317.433V54.7146H317.437Z" fill="#12171E" fill-opacity="0.654531"/>
<path d="M207.158 63.843C207.276 63.9438 207.404 64.0446 207.529 64.1429C205.037 65.797 202.112 66.6779 199.121 66.675C197.128 66.6766 195.154 66.2852 193.311 65.5232C191.469 64.7612 189.795 63.6436 188.386 62.2342C186.976 60.8247 185.857 59.1512 185.095 57.3093C184.332 55.4674 183.94 53.4932 183.941 51.4997C183.941 48.754 184.685 46.0597 186.095 43.7036C187.505 41.3476 189.527 39.418 191.947 38.1204C194.367 36.8227 197.093 36.2057 199.836 36.3349C202.578 36.4641 205.235 37.3347 207.522 38.854C207.399 38.9597 207.276 39.0556 207.182 39.1638C205.41 40.6939 203.989 42.5876 203.014 44.7163C202.039 46.8449 201.534 49.1585 201.533 51.4997C201.533 56.232 203.581 60.7307 207.158 63.843ZM217.879 36.3219C214.89 36.3161 211.968 37.1974 209.481 38.854C209.601 38.9597 209.724 39.0556 209.818 39.1638C213.412 42.2687 215.469 46.7699 215.469 51.4997C215.469 56.2295 213.417 60.7258 209.845 63.843C209.724 63.9438 209.596 64.0446 209.473 64.1429C211.963 65.7975 214.887 66.6785 217.876 66.675C219.885 66.7007 221.88 66.3272 223.743 65.5762C225.607 64.8251 227.303 63.7114 228.733 62.2997C230.163 60.888 231.299 59.2064 232.074 57.3525C232.849 55.4985 233.248 53.5091 233.248 51.4997C233.248 49.4903 232.849 47.5008 232.075 45.6468C231.3 43.7927 230.165 42.1109 228.735 40.699C227.305 39.2871 225.609 38.1731 223.746 37.4217C221.882 36.6704 219.888 36.2965 217.879 36.3219ZM208.5 39.5768C206.693 40.9939 205.232 42.8041 204.228 44.8699C203.225 46.9358 202.705 49.203 202.708 51.4997C202.703 53.7977 203.223 56.0665 204.226 58.1338C205.23 60.2011 206.691 62.0123 208.5 63.43C210.308 62.0117 211.769 60.2004 212.773 58.1333C213.777 56.0662 214.297 53.7977 214.294 51.4997C214.298 49.2028 213.778 46.9352 212.774 44.8693C211.77 42.8034 210.308 40.9934 208.5 39.5768Z" fill="#12171E" fill-opacity="0.654531"/>
<path d="M4.05176 53.6582V58H0.966797V45.2031H6.07324C7.05176 45.2031 7.91602 45.3848 8.66602 45.748C9.42188 46.1055 10.0049 46.6182 10.415 47.2861C10.8311 47.9482 11.0391 48.7012 11.0391 49.5449C11.0391 50.793 10.5908 51.792 9.69434 52.542C8.80371 53.2861 7.5791 53.6582 6.02051 53.6582H4.05176ZM4.05176 51.2764H6.07324C6.6709 51.2764 7.125 51.127 7.43555 50.8281C7.75195 50.5293 7.91016 50.1074 7.91016 49.5625C7.91016 48.9648 7.74902 48.4873 7.42676 48.1299C7.10449 47.7725 6.66504 47.5908 6.1084 47.585H4.05176V51.2764ZM18.3955 55.6094H14.168L13.4297 58H10.1338L14.8271 45.2031H17.7275L22.4561 58H19.1426L18.3955 55.6094ZM14.9062 53.2275H17.6572L16.2773 48.7891L14.9062 53.2275ZM26.7627 50.7578L29.1182 45.2031H32.4492L28.3271 53.4033V58H25.1982V53.4033L21.085 45.2031H24.3984L26.7627 50.7578ZM37.4326 45.2031L40.2891 54.1064L43.1367 45.2031H47.1973V58H44.1035V55.0117L44.4023 48.8945L41.3086 58H39.2695L36.167 48.8857L36.4658 55.0117V58H33.3809V45.2031H37.4326ZM57.1025 52.5771H52.251V55.627H57.9814V58H49.166V45.2031H57.999V47.585H52.251V50.2832H57.1025V52.5771ZM69.9258 58H66.8584L62.3232 50.0371V58H59.2383V45.2031H62.3232L66.8496 53.166V45.2031H69.9258V58ZM81.6592 47.585H77.8184V58H74.7334V47.585H70.9629V45.2031H81.6592V47.585ZM90.9756 45.2031L93.832 54.1064L96.6797 45.2031H100.74V58H97.6465V55.0117L97.9453 48.8945L94.8516 58H92.8125L89.71 48.8857L90.0088 55.0117V58H86.9238V45.2031H90.9756ZM110.646 52.5771H105.794V55.627H111.524V58H102.709V45.2031H111.542V47.585H105.794V50.2832H110.646V52.5771ZM123.003 47.585H119.162V58H116.077V47.585H112.307V45.2031H123.003V47.585ZM135.009 58H131.941V52.6562H127.397V58H124.312V45.2031H127.397V50.2832H131.941V45.2031H135.009V58ZM147.806 51.8652C147.806 53.1133 147.574 54.2178 147.111 55.1787C146.648 56.1396 145.989 56.8809 145.134 57.4023C144.284 57.918 143.314 58.1758 142.225 58.1758C141.135 58.1758 140.168 57.9268 139.324 57.4287C138.48 56.9248 137.821 56.207 137.347 55.2754C136.878 54.3438 136.632 53.2744 136.608 52.0674V51.3467C136.608 50.0928 136.837 48.9883 137.294 48.0332C137.757 47.0723 138.416 46.3311 139.271 45.8096C140.133 45.2881 141.111 45.0273 142.207 45.0273C143.291 45.0273 144.258 45.2852 145.107 45.8008C145.957 46.3164 146.616 47.0518 147.085 48.0068C147.56 48.9561 147.8 50.0459 147.806 51.2764V51.8652ZM144.668 51.3291C144.668 50.0576 144.454 49.0938 144.026 48.4375C143.604 47.7754 142.998 47.4443 142.207 47.4443C140.66 47.4443 139.843 48.6045 139.755 50.9248L139.746 51.8652C139.746 53.1191 139.954 54.083 140.37 54.7568C140.786 55.4307 141.404 55.7676 142.225 55.7676C143.004 55.7676 143.604 55.4365 144.026 54.7744C144.448 54.1123 144.662 53.1602 144.668 51.918V51.3291ZM149.396 58V45.2031H153.519C154.649 45.2031 155.666 45.4609 156.568 45.9766C157.471 46.4863 158.174 47.21 158.678 48.1475C159.188 49.0791 159.445 50.125 159.451 51.2852V51.874C159.451 53.0459 159.202 54.0977 158.704 55.0293C158.212 55.9551 157.515 56.6816 156.612 57.209C155.716 57.7305 154.714 57.9941 153.606 58H149.396ZM152.481 47.585V55.627H153.554C154.438 55.627 155.118 55.3135 155.593 54.6865C156.067 54.0537 156.305 53.1162 156.305 51.874V51.3203C156.305 50.084 156.067 49.1523 155.593 48.5254C155.118 47.8984 154.427 47.585 153.519 47.585H152.481ZM167.634 54.5986C167.634 54.1475 167.473 53.7959 167.15 53.5439C166.834 53.292 166.274 53.0312 165.472 52.7617C164.669 52.4922 164.013 52.2314 163.503 51.9795C161.845 51.165 161.016 50.0459 161.016 48.6221C161.016 47.9131 161.221 47.2891 161.631 46.75C162.047 46.2051 162.633 45.7832 163.389 45.4844C164.145 45.1797 164.994 45.0273 165.938 45.0273C166.857 45.0273 167.681 45.1914 168.407 45.5195C169.14 45.8477 169.708 46.3164 170.112 46.9258C170.517 47.5293 170.719 48.2207 170.719 49H167.643C167.643 48.4785 167.481 48.0742 167.159 47.7871C166.843 47.5 166.412 47.3564 165.867 47.3564C165.316 47.3564 164.88 47.4795 164.558 47.7256C164.241 47.9658 164.083 48.2734 164.083 48.6484C164.083 48.9766 164.259 49.2754 164.61 49.5449C164.962 49.8086 165.58 50.084 166.465 50.3711C167.35 50.6523 168.076 50.957 168.645 51.2852C170.027 52.082 170.719 53.1807 170.719 54.5811C170.719 55.7002 170.297 56.5791 169.453 57.2178C168.609 57.8564 167.452 58.1758 165.981 58.1758C164.944 58.1758 164.004 57.9912 163.16 57.6221C162.322 57.2471 161.689 56.7373 161.262 56.0928C160.84 55.4424 160.629 54.6953 160.629 53.8516H163.723C163.723 54.5371 163.898 55.0439 164.25 55.3721C164.607 55.6943 165.185 55.8555 165.981 55.8555C166.491 55.8555 166.893 55.7471 167.186 55.5303C167.484 55.3076 167.634 54.9971 167.634 54.5986Z" fill="#12171E" fill-opacity="0.654531"/>
</svg>
