<svg width="11" height="21" viewBox="0 0 11 21" fill="none" xmlns="http://www.w3.org/2000/svg">
<path d="M2.30914 0.583349C2.52079 0.582628 2.7299 0.629339 2.92112 0.720047C3.11234 0.810755 3.28081 0.943153 3.41414 1.10752L10.2566 9.60752C10.465 9.861 10.5789 10.179 10.5789 10.5071C10.5789 10.8352 10.465 11.1532 10.2566 11.4067L3.17331 19.9067C2.93285 20.196 2.58731 20.3779 2.2127 20.4125C1.8381 20.447 1.46512 20.3313 1.17581 20.0908C0.886503 19.8504 0.704569 19.5048 0.670032 19.1302C0.635493 18.7556 0.751181 18.3827 0.991643 18.0933L7.32414 10.5L1.20414 2.90668C1.03091 2.69874 0.920867 2.44552 0.887037 2.17699C0.853209 1.90847 0.897007 1.63586 1.01325 1.39145C1.1295 1.14704 1.31333 0.941038 1.54298 0.797827C1.77264 0.654615 2.03851 0.580187 2.30914 0.583349Z" fill="white"/>
</svg>
