<svg width="299" height="46" viewBox="0 0 299 46" fill="none" xmlns="http://www.w3.org/2000/svg">
<path d="M5.7 18.34C4.07333 18.34 2.81333 17.9133 1.92 17.06C1.04 16.2067 0.6 14.9933 0.6 13.42H2.9C2.9 14.3267 3.14667 15.04 3.64 15.56C4.13333 16.08 4.81333 16.34 5.68 16.34C6.44 16.34 7.02 16.1733 7.42 15.84C7.83333 15.4933 8.04 15.0067 8.04 14.38C8.04 13.8467 7.88667 13.42 7.58 13.1C7.28667 12.78 6.74667 12.46 5.96 12.14L3.68 11.22C1.89333 10.5267 1 9.28667 1 7.5C1 6.36667 1.41333 5.44667 2.24 4.74C3.08 4.02 4.16 3.66 5.48 3.66C6.86667 3.66 7.98 4.06 8.82 4.86C9.67333 5.66 10.1 6.72 10.1 8.04H7.8C7.8 7.26667 7.59333 6.67333 7.18 6.26C6.76667 5.83333 6.17333 5.62 5.4 5.62C4.74667 5.62 4.23333 5.78 3.86 6.1C3.5 6.40667 3.32 6.82667 3.32 7.36C3.32 7.84 3.5 8.25333 3.86 8.6C4.22 8.94667 4.81333 9.28667 5.64 9.62L7.7 10.46C9.46 11.18 10.34 12.4667 10.34 14.32C10.34 15.52 9.91333 16.4933 9.06 17.24C8.20667 17.9733 7.08667 18.34 5.7 18.34ZM19.0152 18.34C16.7752 18.34 15.0018 17.66 13.6952 16.3C12.3885 14.94 11.7352 13.1733 11.7352 11C11.7352 8.82667 12.3885 7.06 13.6952 5.7C15.0018 4.34 16.7752 3.66 19.0152 3.66C20.8952 3.66 22.4418 4.14 23.6552 5.1C24.8685 6.04667 25.5818 7.28 25.7952 8.8H23.2752C23.0485 7.84 22.5685 7.08667 21.8352 6.54C21.1152 5.99333 20.1818 5.72 19.0352 5.72C17.5018 5.72 16.3018 6.2 15.4352 7.16C14.5818 8.10667 14.1552 9.38667 14.1552 11C14.1552 12.6133 14.5818 13.9 15.4352 14.86C16.3018 15.8067 17.5018 16.28 19.0352 16.28C20.1818 16.28 21.1152 16.0067 21.8352 15.46C22.5685 14.9133 23.0485 14.16 23.2752 13.2H25.7952C25.5818 14.72 24.8685 15.96 23.6552 16.92C22.4418 17.8667 20.8952 18.34 19.0152 18.34ZM27.9063 18V4H30.2063V18H27.9063ZM42.3992 18.34C40.7726 18.34 39.5126 17.9133 38.6192 17.06C37.7392 16.2067 37.2992 14.9933 37.2992 13.42H39.5992C39.5992 14.3267 39.8459 15.04 40.3392 15.56C40.8326 16.08 41.5126 16.34 42.3792 16.34C43.1392 16.34 43.7192 16.1733 44.1192 15.84C44.5326 15.4933 44.7392 15.0067 44.7392 14.38C44.7392 13.8467 44.5859 13.42 44.2792 13.1C43.9859 12.78 43.4459 12.46 42.6592 12.14L40.3792 11.22C38.5926 10.5267 37.6992 9.28667 37.6992 7.5C37.6992 6.36667 38.1126 5.44667 38.9392 4.74C39.7792 4.02 40.8592 3.66 42.1792 3.66C43.5659 3.66 44.6792 4.06 45.5192 4.86C46.3726 5.66 46.7992 6.72 46.7992 8.04H44.4992C44.4992 7.26667 44.2926 6.67333 43.8792 6.26C43.4659 5.83333 42.8726 5.62 42.0992 5.62C41.4459 5.62 40.9326 5.78 40.5592 6.1C40.1992 6.40667 40.0192 6.82667 40.0192 7.36C40.0192 7.84 40.1992 8.25333 40.5592 8.6C40.9192 8.94667 41.5126 9.28667 42.3392 9.62L44.3992 10.46C46.1592 11.18 47.0392 12.4667 47.0392 14.32C47.0392 15.52 46.6126 16.4933 45.7592 17.24C44.9059 17.9733 43.7859 18.34 42.3992 18.34ZM54.3544 8.44C56.621 8.44 57.7544 9.67333 57.7544 12.14V18H55.5744V13.14C55.5744 12.1267 55.421 11.4 55.1144 10.96C54.8077 10.52 54.281 10.3 53.5344 10.3C52.8277 10.3 52.281 10.5267 51.8944 10.98C51.5077 11.42 51.3144 12.0533 51.3144 12.88V18H49.1344V4H51.3144V9.98C51.9144 8.95333 52.9277 8.44 54.3544 8.44ZM64.3425 18.24C62.8892 18.24 61.7625 17.78 60.9625 16.86C60.1625 15.94 59.7625 14.7667 59.7625 13.34C59.7625 11.9267 60.1825 10.76 61.0225 9.84C61.8625 8.90667 62.9892 8.44 64.4025 8.44C65.0292 8.44 65.6025 8.57333 66.1225 8.84C66.6425 9.10667 67.0425 9.47333 67.3225 9.94V8.68H69.5025V18H67.3225V16.74C67.0558 17.1933 66.6358 17.56 66.0625 17.84C65.5025 18.1067 64.9292 18.24 64.3425 18.24ZM64.6625 16.3C65.5558 16.3 66.2358 16.02 66.7025 15.46C67.1825 14.9 67.4225 14.1933 67.4225 13.34C67.4225 12.4867 67.1825 11.78 66.7025 11.22C66.2358 10.66 65.5558 10.38 64.6625 10.38C63.8225 10.38 63.1558 10.66 62.6625 11.22C62.1825 11.7667 61.9425 12.4733 61.9425 13.34C61.9425 14.2067 62.1825 14.92 62.6625 15.48C63.1558 16.0267 63.8225 16.3 64.6625 16.3ZM72.2984 18V4H74.4784V18H72.2984ZM79.5389 6.88C79.2322 7.18667 78.8456 7.34 78.3789 7.34C77.9122 7.34 77.5256 7.18667 77.2189 6.88C76.9122 6.56 76.7589 6.17333 76.7589 5.72C76.7589 5.26667 76.9122 4.88667 77.2189 4.58C77.5256 4.26 77.9122 4.1 78.3789 4.1C78.8456 4.1 79.2322 4.26 79.5389 4.58C79.8456 4.88667 79.9989 5.26667 79.9989 5.72C79.9989 6.17333 79.8456 6.56 79.5389 6.88ZM77.2789 18V8.68H79.4589V18H77.2789ZM85.5194 18.24C84.346 18.24 83.3927 17.94 82.6594 17.34C81.926 16.74 81.5594 16.0067 81.5594 15.14H83.7394C83.7394 15.54 83.9127 15.8667 84.2594 16.12C84.6194 16.3733 85.0794 16.5 85.6394 16.5C86.0527 16.5 86.3794 16.4 86.6194 16.2C86.8594 16 86.9794 15.7333 86.9794 15.4C86.9794 14.8667 86.746 14.54 86.2794 14.42L83.8794 13.76C82.5327 13.3867 81.8594 12.5267 81.8594 11.18C81.8594 10.4067 82.1927 9.76 82.8594 9.24C83.526 8.70667 84.386 8.44 85.4394 8.44C86.626 8.44 87.5327 8.70667 88.1594 9.24C88.7994 9.77333 89.1194 10.4733 89.1194 11.34H86.9794C86.9794 10.9533 86.8327 10.6533 86.5394 10.44C86.2594 10.2133 85.866 10.1 85.3594 10.1C84.9727 10.1 84.6527 10.1933 84.3994 10.38C84.146 10.5533 84.0194 10.78 84.0194 11.06C84.0194 11.5667 84.286 11.9 84.8194 12.06L87.0394 12.7C87.6794 12.8867 88.1994 13.2067 88.5994 13.66C88.9994 14.1 89.1994 14.6133 89.1994 15.2C89.1994 16.1067 88.8727 16.84 88.2194 17.4C87.5794 17.96 86.6794 18.24 85.5194 18.24ZM91.4 18V8.68H93.58V9.98C93.7933 9.52667 94.1333 9.16 94.6 8.88C95.0667 8.58667 95.5933 8.44 96.18 8.44C97.66 8.44 98.64 8.99333 99.12 10.1C99.3467 9.62 99.72 9.22667 100.24 8.92C100.76 8.6 101.34 8.44 101.98 8.44C104.22 8.44 105.34 9.66 105.34 12.1V18H103.16V12.52C103.16 11.04 102.58 10.3 101.42 10.3C100.807 10.3 100.327 10.5067 99.98 10.92C99.6333 11.32 99.46 12.0333 99.46 13.06V18H97.28V12.5C97.28 11.0333 96.7133 10.3 95.58 10.3C94.9533 10.3 94.46 10.5067 94.1 10.92C93.7533 11.32 93.58 12.0333 93.58 13.06V18H91.4ZM110.301 6.88C109.994 7.18667 109.607 7.34 109.141 7.34C108.674 7.34 108.287 7.18667 107.981 6.88C107.674 6.56 107.521 6.17333 107.521 5.72C107.521 5.26667 107.674 4.88667 107.981 4.58C108.287 4.26 108.674 4.1 109.141 4.1C109.607 4.1 109.994 4.26 110.301 4.58C110.607 4.88667 110.761 5.26667 110.761 5.72C110.761 6.17333 110.607 6.56 110.301 6.88ZM108.041 18V8.68H110.221V18H108.041Z" fill="black"/>
<path d="M7.455 38.3C7.455 39.09 7.205 39.75 6.705 40.28C6.215 40.8 5.55 41.115 4.71 41.225V42.5H3.48V41.225C2.51 41.105 1.76 40.73 1.23 40.1C0.71 39.47 0.45 38.625 0.45 37.565H2.175C2.175 38.245 2.345 38.78 2.685 39.17C3.025 39.56 3.5 39.755 4.11 39.755C4.63 39.755 5.03 39.635 5.31 39.395C5.59 39.145 5.73 38.795 5.73 38.345C5.73 38.005 5.63 37.72 5.43 37.49C5.23 37.26 4.88 37.055 4.38 36.875L2.76 36.35C2.1 36.12 1.6 35.755 1.26 35.255C0.92 34.745 0.75 34.145 0.75 33.455C0.75 32.745 1 32.125 1.5 31.595C2.01 31.065 2.67 30.75 3.48 30.65V29.3H4.71V30.695C5.48 30.835 6.09 31.19 6.54 31.76C6.99 32.32 7.215 33.02 7.215 33.86H5.49C5.49 33.29 5.35 32.855 5.07 32.555C4.8 32.245 4.41 32.09 3.9 32.09C3.46 32.09 3.115 32.205 2.865 32.435C2.615 32.655 2.49 32.96 2.49 33.35C2.49 33.74 2.595 34.07 2.805 34.34C3.025 34.6 3.41 34.825 3.96 35.015L5.655 35.615C6.855 36.035 7.455 36.93 7.455 38.3ZM10.6684 41V33.98H8.5084V32.54C9.4284 32.54 10.0434 32.415 10.3534 32.165C10.6634 31.905 10.8184 31.45 10.8184 30.8H12.3784V41H10.6684ZM14.71 41C14.71 39.87 14.91 38.945 15.31 38.225C15.71 37.495 16.35 36.885 17.23 36.395L18.73 35.57C19.58 35.1 20.005 34.455 20.005 33.635C20.005 33.185 19.865 32.82 19.585 32.54C19.305 32.26 18.945 32.12 18.505 32.12C17.935 32.12 17.495 32.305 17.185 32.675C16.875 33.045 16.72 33.575 16.72 34.265H14.935C14.935 33.155 15.255 32.27 15.895 31.61C16.545 30.95 17.415 30.62 18.505 30.62C19.535 30.62 20.345 30.885 20.935 31.415C21.535 31.935 21.835 32.645 21.835 33.545C21.835 34.165 21.66 34.75 21.31 35.3C20.96 35.85 20.47 36.305 19.84 36.665L18.37 37.505C17.81 37.825 17.42 38.115 17.2 38.375C16.99 38.635 16.84 38.995 16.75 39.455H21.805V41H14.71ZM29.8682 39.845C29.2082 40.735 28.2382 41.18 26.9582 41.18C25.6782 41.18 24.7032 40.735 24.0332 39.845C23.3732 38.945 23.0432 37.63 23.0432 35.9C23.0432 34.17 23.3732 32.86 24.0332 31.97C24.7032 31.07 25.6782 30.62 26.9582 30.62C28.2382 30.62 29.2082 31.07 29.8682 31.97C30.5382 32.86 30.8732 34.17 30.8732 35.9C30.8732 37.63 30.5382 38.945 29.8682 39.845ZM24.6782 35.9C24.6782 38.42 25.4382 39.68 26.9582 39.68C28.4782 39.68 29.2382 38.42 29.2382 35.9C29.2382 33.38 28.4782 32.12 26.9582 32.12C25.4382 32.12 24.6782 33.38 24.6782 35.9Z" fill="black"/>
<path d="M32.4657 41.715L31.6957 41.374L35.4687 32.629L36.2387 32.97L32.4657 41.715ZM36.2771 41V35.929H37.2341V36.864C37.3735 36.534 37.5935 36.2737 37.8941 36.083C38.2021 35.8923 38.5725 35.797 39.0051 35.797C40.2665 35.797 40.8971 36.49 40.8971 37.876V41H39.9401V38.294C39.9401 37.722 39.8375 37.3003 39.6321 37.029C39.4341 36.7577 39.1115 36.622 38.6641 36.622C38.2021 36.622 37.8465 36.7723 37.5971 37.073C37.3551 37.3737 37.2341 37.788 37.2341 38.316V41H36.2771ZM42.9809 35.06C42.7535 35.06 42.5665 34.9867 42.4199 34.84C42.2732 34.6933 42.1999 34.51 42.1999 34.29C42.1999 34.07 42.2732 33.8867 42.4199 33.74C42.5665 33.586 42.7535 33.509 42.9809 33.509C43.2009 33.509 43.3842 33.586 43.5309 33.74C43.6775 33.8867 43.7509 34.07 43.7509 34.29C43.7509 34.51 43.6775 34.6933 43.5309 34.84C43.3842 34.9867 43.2009 35.06 42.9809 35.06ZM42.4969 41V35.929H43.4539V41H42.4969ZM49.0122 35.929H49.9582V40.868C49.9582 41.836 49.6649 42.5473 49.0782 43.002C48.6529 43.3173 48.0699 43.475 47.3292 43.475C46.5886 43.475 45.9909 43.31 45.5362 42.98C45.0522 42.6427 44.7992 42.1953 44.7772 41.638H45.7782C45.8222 41.946 45.9726 42.1953 46.2292 42.386C46.4932 42.5767 46.8599 42.672 47.3292 42.672C48.4512 42.672 49.0122 42.0927 49.0122 40.934V40.109C48.8582 40.4243 48.6126 40.6737 48.2752 40.857C47.9379 41.0403 47.5822 41.132 47.2082 41.132C46.4456 41.132 45.8369 40.879 45.3822 40.373C44.9276 39.867 44.7002 39.2327 44.7002 38.47C44.7002 37.7073 44.9349 37.073 45.4042 36.567C45.8809 36.0537 46.4896 35.797 47.2302 35.797C47.6189 35.797 47.9709 35.8887 48.2862 36.072C48.6089 36.2553 48.8509 36.5047 49.0122 36.82V35.929ZM47.3402 40.274C47.8609 40.274 48.2752 40.1017 48.5832 39.757C48.8986 39.4123 49.0562 38.9833 49.0562 38.47C49.0562 37.9567 48.8986 37.5277 48.5832 37.183C48.2752 36.831 47.8609 36.655 47.3402 36.655C46.8416 36.655 46.4346 36.8273 46.1192 37.172C45.8039 37.5093 45.6462 37.942 45.6462 38.47C45.6462 38.9907 45.8039 39.4233 46.1192 39.768C46.4346 40.1053 46.8416 40.274 47.3402 40.274ZM54.3453 35.797C55.6066 35.797 56.2373 36.49 56.2373 37.876V41H55.2803V38.294C55.2803 37.722 55.1776 37.3003 54.9723 37.029C54.7743 36.7577 54.4516 36.622 54.0043 36.622C53.5423 36.622 53.1866 36.7723 52.9373 37.073C52.6953 37.3737 52.5743 37.788 52.5743 38.316V41H51.6173V33.3H52.5743V36.864C52.7136 36.534 52.9336 36.2737 53.2343 36.083C53.5423 35.8923 53.9126 35.797 54.3453 35.797ZM59.8201 40.197C60.0841 40.197 60.2967 40.1787 60.4581 40.142V40.989C60.2381 41.0403 59.9557 41.066 59.6111 41.066C59.4571 41.066 59.3214 41.0587 59.2041 41.044C59.0941 41.0293 58.9621 40.989 58.8081 40.923C58.6541 40.857 58.5257 40.7653 58.4231 40.648C58.3204 40.5233 58.2324 40.351 58.1591 40.131C58.0857 39.9037 58.0491 39.6323 58.0491 39.317V36.732H57.1361V35.929H58.0491V34.323H59.0061V35.929H60.2821V36.732H59.0061V39.108C59.0061 39.5553 59.0721 39.8487 59.2041 39.988C59.3361 40.1273 59.5414 40.197 59.8201 40.197Z" fill="#12171E" fill-opacity="0.654531"/>
<path d="M216.49 6.13C216.49 6.95 216.285 7.665 215.875 8.275C215.465 8.885 214.91 9.31 214.21 9.55L216.34 13H214.78L212.755 9.745H210.565V13H209.2V2.5H212.965C213.995 2.5 214.84 2.84 215.5 3.52C216.16 4.2 216.49 5.07 216.49 6.13ZM210.565 3.73V8.515H212.89C213.54 8.515 214.075 8.29 214.495 7.84C214.915 7.39 215.125 6.82 215.125 6.13C215.125 5.43 214.915 4.855 214.495 4.405C214.075 3.955 213.54 3.73 212.89 3.73H210.565ZM221.106 13.18C220.006 13.18 219.131 12.835 218.481 12.145C217.831 11.445 217.506 10.575 217.506 9.535C217.506 8.495 217.831 7.63 218.481 6.94C219.131 6.25 220.006 5.905 221.106 5.905C222.196 5.905 223.066 6.255 223.716 6.955C224.376 7.645 224.706 8.505 224.706 9.535C224.706 10.575 224.376 11.445 223.716 12.145C223.066 12.835 222.196 13.18 221.106 13.18ZM219.411 11.32C219.831 11.78 220.396 12.01 221.106 12.01C221.816 12.01 222.376 11.78 222.786 11.32C223.196 10.85 223.401 10.255 223.401 9.535C223.401 8.825 223.196 8.24 222.786 7.78C222.376 7.31 221.816 7.075 221.106 7.075C220.396 7.075 219.831 7.31 219.411 7.78C219.001 8.24 218.796 8.83 218.796 9.55C218.796 10.26 219.001 10.85 219.411 11.32ZM229.528 13.18C228.428 13.18 227.553 12.835 226.903 12.145C226.253 11.445 225.928 10.575 225.928 9.535C225.928 8.495 226.253 7.63 226.903 6.94C227.553 6.25 228.428 5.905 229.528 5.905C230.618 5.905 231.488 6.255 232.138 6.955C232.798 7.645 233.128 8.505 233.128 9.535C233.128 10.575 232.798 11.445 232.138 12.145C231.488 12.835 230.618 13.18 229.528 13.18ZM227.833 11.32C228.253 11.78 228.818 12.01 229.528 12.01C230.238 12.01 230.798 11.78 231.208 11.32C231.618 10.85 231.823 10.255 231.823 9.535C231.823 8.825 231.618 8.24 231.208 7.78C230.798 7.31 230.238 7.075 229.528 7.075C228.818 7.075 228.253 7.31 227.833 7.78C227.423 8.24 227.218 8.83 227.218 9.55C227.218 10.26 227.423 10.85 227.833 11.32ZM234.818 13V6.085H236.123V7.345C236.263 6.935 236.513 6.595 236.873 6.325C237.233 6.045 237.673 5.905 238.193 5.905C239.383 5.905 240.123 6.4 240.413 7.39C240.573 6.96 240.853 6.605 241.253 6.325C241.653 6.045 242.113 5.905 242.633 5.905C244.293 5.905 245.123 6.81 245.123 8.62V13H243.818V8.875C243.818 7.645 243.318 7.03 242.318 7.03C241.188 7.03 240.623 7.82 240.623 9.4V13H239.318V8.965C239.318 7.675 238.823 7.03 237.833 7.03C237.293 7.03 236.873 7.23 236.573 7.63C236.273 8.02 236.123 8.61 236.123 9.4V13H234.818Z" fill="#12171E" fill-opacity="0.654531"/>
<path d="M212.592 39.192C211.323 39.192 210.331 38.856 209.616 38.184C208.912 37.512 208.56 36.5733 208.56 35.368H210.432C210.432 36.0933 210.619 36.6533 210.992 37.048C211.365 37.4427 211.899 37.64 212.592 37.64C213.157 37.64 213.616 37.48 213.968 37.16C214.32 36.84 214.496 36.4187 214.496 35.896C214.496 34.7013 213.813 34.104 212.448 34.104H211.68V32.52H212.464C213.627 32.52 214.208 31.9867 214.208 30.92C214.208 30.4827 214.048 30.1307 213.728 29.864C213.419 29.5867 213.019 29.448 212.528 29.448C211.941 29.448 211.477 29.6187 211.136 29.96C210.805 30.2907 210.64 30.7493 210.64 31.336H208.832C208.832 30.2907 209.163 29.464 209.824 28.856C210.496 28.2373 211.397 27.928 212.528 27.928C213.595 27.928 214.453 28.2053 215.104 28.76C215.755 29.304 216.08 30.024 216.08 30.92C216.08 32.0933 215.467 32.8773 214.24 33.272C214.88 33.3893 215.392 33.6827 215.776 34.152C216.16 34.6213 216.352 35.1973 216.352 35.88C216.352 36.8507 216 37.6453 215.296 38.264C214.603 38.8827 213.701 39.192 212.592 39.192Z" fill="#12171E" fill-opacity="0.654531"/>
<path d="M242 29H234V36H226V27H224V42H226V39H244V42H246V33C246 31.9391 245.579 30.9217 244.828 30.1716C244.078 29.4214 243.061 29 242 29ZM230 35C230.796 35 231.559 34.6839 232.121 34.1213C232.684 33.5587 233 32.7956 233 32C233 31.2044 232.684 30.4413 232.121 29.8787C231.559 29.3161 230.796 29 230 29C229.204 29 228.441 29.3161 227.879 29.8787C227.316 30.4413 227 31.2044 227 32C227 32.7956 227.316 33.5587 227.879 34.1213C228.441 34.6839 229.204 35 230 35Z" fill="#12171E" fill-opacity="0.654531"/>
<path d="M266.912 37L271.68 27.8H266.72V26.12H274.432L268.944 37H266.912Z" fill="#12171E" fill-opacity="0.654531"/>
<path d="M290.25 30.3337V31.1671H282.75V30.3337C282.75 28.9529 284.429 27.8337 286.5 27.8337C288.571 27.8337 290.25 28.9529 290.25 30.3337Z" stroke="#12171E" stroke-opacity="0.654531" stroke-width="1.66667" stroke-linecap="round" stroke-linejoin="round"/>
<path d="M296.5 40.3337V27.2087C296.5 25.2528 294.261 23.667 291.5 23.667C288.739 23.667 286.5 25.2528 286.5 27.2087V27.8337" stroke="#12171E" stroke-opacity="0.654531" stroke-width="1.66667" stroke-linecap="round" stroke-linejoin="round"/>
<path d="M286.5 34.0837V33.667" stroke="#12171E" stroke-opacity="0.654531" stroke-width="1.66667" stroke-linecap="round" stroke-linejoin="round"/>
<path d="M283.238 33.6794L283.095 34.0711" stroke="#12171E" stroke-opacity="0.654531" stroke-width="1.66667" stroke-linecap="round" stroke-linejoin="round"/>
<path d="M280.738 39.9294L280.595 40.3211" stroke="#12171E" stroke-opacity="0.654531" stroke-width="1.66667" stroke-linecap="round" stroke-linejoin="round"/>
<path d="M286.5 40.3337V39.917" stroke="#12171E" stroke-opacity="0.654531" stroke-width="1.66667" stroke-linecap="round" stroke-linejoin="round"/>
<path d="M286.5 37.4171V36.5837" stroke="#12171E" stroke-opacity="0.654531" stroke-width="1.66667" stroke-linecap="round" stroke-linejoin="round"/>
<path d="M282.059 36.6086L281.774 37.392" stroke="#12171E" stroke-opacity="0.654531" stroke-width="1.66667" stroke-linecap="round" stroke-linejoin="round"/>
</svg>
