<svg width="13" height="13" viewBox="0 0 13 13" fill="none" xmlns="http://www.w3.org/2000/svg">
<g clip-path="url(#clip0_22_299)">
<path d="M13 9.75011C13 10.1332 12.8478 10.5006 12.5769 10.7715C12.306 11.0424 11.9386 11.1946 11.5556 11.1946H1.44444C1.06135 11.1946 0.693954 11.0424 0.423068 10.7715C0.152182 10.5006 0 10.1332 0 9.75011V3.25011C0 2.86702 0.152182 2.49962 0.423068 2.22873C0.693954 1.95785 1.06135 1.80566 1.44444 1.80566H11.5556C11.9386 1.80566 12.306 1.95785 12.5769 2.22873C12.8478 2.49962 13 2.86702 13 3.25011V9.75011Z" fill="#20603D"/>
<path d="M0 6.86133H13V9.38911H0V6.86133Z" fill="#FAD201"/>
<path d="M11.5556 1.80566H1.44444C1.06135 1.80566 0.693954 1.95785 0.423068 2.22873C0.152182 2.49962 0 2.86702 0 3.25011L0 7.58344H13V3.25011C13 2.86702 12.8478 2.49962 12.5769 2.22873C12.306 1.95785 11.9386 1.80566 11.5556 1.80566Z" fill="#00A1DE"/>
<path d="M9.38889 1.80566L9.57739 3.26239L10.1364 1.90389L9.94175 3.35989L10.8333 2.19278L10.2682 3.54875L11.4313 2.65175L10.5347 3.81525L11.891 3.25011L10.7232 4.14169L12.1796 3.94669L10.8211 4.50569L12.2778 4.69455L10.8211 4.88341L12.1796 5.44205L10.7232 5.24741L11.891 6.139L10.5347 5.57386L11.4313 6.73736L10.2682 5.84036L10.8333 7.19669L9.94175 6.02886L10.1364 7.48522L9.57739 6.12672L9.38889 7.58344L9.20039 6.12672L8.64103 7.48522L8.83603 6.02886L7.94444 7.19669L8.50958 5.84036L7.34644 6.73736L8.24272 5.57386L6.88675 6.139L8.05422 5.24741L6.59822 5.44205L7.95636 4.88341L6.5 4.69455L7.95636 4.50569L6.59822 3.94669L8.05422 4.14169L6.88675 3.25011L8.24272 3.81525L7.34644 2.65175L8.50958 3.54875L7.94444 2.19278L8.83603 3.35989L8.64103 1.90389L9.20039 3.26239L9.38889 1.80566Z" fill="#FAD201"/>
<path d="M9.3889 6.13889C10.1866 6.13889 10.8333 5.49219 10.8333 4.69444C10.8333 3.8967 10.1866 3.25 9.3889 3.25C8.59116 3.25 7.94446 3.8967 7.94446 4.69444C7.94446 5.49219 8.59116 6.13889 9.3889 6.13889Z" fill="#00A1DE"/>
<path d="M9.38888 5.77799C9.98718 5.77799 10.4722 5.29297 10.4722 4.69466C10.4722 4.09635 9.98718 3.61133 9.38888 3.61133C8.79057 3.61133 8.30554 4.09635 8.30554 4.69466C8.30554 5.29297 8.79057 5.77799 9.38888 5.77799Z" fill="#FAD201"/>
</g>
<defs>
<clipPath id="clip0_22_299">
<rect width="13" height="13" fill="white"/>
</clipPath>
</defs>
</svg>
