<svg width="12" height="8" viewBox="0 0 12 8" fill="none" xmlns="http://www.w3.org/2000/svg">
<path d="M0.679979 1.15328C0.612075 1.22101 0.5582 1.30148 0.52144 1.39007C0.484681 1.47865 0.465759 1.57362 0.465759 1.66953C0.465759 1.76544 0.484681 1.86041 0.52144 1.949C0.5582 2.03758 0.612075 2.11805 0.679979 2.18578L5.58581 7.09161C5.63978 7.14569 5.70388 7.18859 5.77445 7.21787C5.84502 7.24714 5.92066 7.26221 5.99706 7.26221C6.07346 7.26221 6.14911 7.24714 6.21968 7.21787C6.29024 7.18859 6.35435 7.14569 6.40831 7.09161L11.3141 2.18578C11.6 1.89995 11.6 1.43912 11.3141 1.15328C11.0283 0.867448 10.5675 0.867448 10.2816 1.15328L5.99998 5.43495L1.71248 1.14745C1.42665 0.867448 0.965813 0.867448 0.679979 1.15328Z" fill="#3E94FE"/>
</svg>
