<svg width="391" height="18" viewBox="0 0 391 18" fill="none" xmlns="http://www.w3.org/2000/svg">
<path d="M11.3203 9.66699C11.2793 10.5576 11.0391 11.3457 10.5996 12.0312C10.1602 12.7109 9.54199 13.2383 8.74512 13.6133C7.9541 13.9883 7.04883 14.1758 6.0293 14.1758C4.34766 14.1758 3.02344 13.6279 2.05664 12.5322C1.08984 11.4365 0.606445 9.88965 0.606445 7.8916V7.25879C0.606445 6.00488 0.823242 4.90918 1.25684 3.97168C1.69629 3.02832 2.32617 2.30176 3.14648 1.79199C3.9668 1.27637 4.91602 1.01855 5.99414 1.01855C7.54688 1.01855 8.79492 1.42871 9.73828 2.24902C10.6816 3.06348 11.2178 4.18848 11.3467 5.62402H8.27051C8.24707 4.84473 8.05078 4.28516 7.68164 3.94531C7.3125 3.60547 6.75 3.43555 5.99414 3.43555C5.22656 3.43555 4.66406 3.72266 4.30664 4.29688C3.94922 4.87109 3.76172 5.78809 3.74414 7.04785V7.95312C3.74414 9.31836 3.91406 10.2939 4.25391 10.8799C4.59961 11.4658 5.19141 11.7588 6.0293 11.7588C6.73828 11.7588 7.28027 11.5918 7.65527 11.2578C8.03027 10.9238 8.22949 10.3936 8.25293 9.66699H11.3203ZM12.2695 9.15723C12.2695 8.20801 12.4541 7.36426 12.8232 6.62598C13.1924 5.88184 13.7227 5.31055 14.4141 4.91211C15.1055 4.51367 15.917 4.31445 16.8486 4.31445C18.2725 4.31445 19.3945 4.75684 20.2148 5.6416C21.0352 6.52051 21.4453 7.71875 21.4453 9.23633V9.3418C21.4453 10.8242 21.0322 12.002 20.2061 12.875C19.3857 13.7422 18.2725 14.1758 16.8662 14.1758C15.5127 14.1758 14.4258 13.7715 13.6055 12.9629C12.7852 12.1484 12.3428 11.0469 12.2783 9.6582L12.2695 9.15723ZM15.2314 9.3418C15.2314 10.2207 15.3691 10.8652 15.6445 11.2754C15.9199 11.6855 16.3271 11.8906 16.8662 11.8906C17.9209 11.8906 18.46 11.0791 18.4834 9.45605V9.15723C18.4834 7.45215 17.9385 6.59961 16.8486 6.59961C15.8584 6.59961 15.3223 7.33496 15.2402 8.80566L15.2314 9.3418ZM31.5791 9.31543C31.5791 10.792 31.2451 11.9727 30.5771 12.8574C29.915 13.7363 29.0186 14.1758 27.8877 14.1758C27.0146 14.1758 26.2969 13.8564 25.7344 13.2178V17.6562H22.7725V4.49023H25.541L25.6289 5.36914C26.1973 4.66602 26.9443 4.31445 27.8701 4.31445C29.042 4.31445 29.9531 4.74805 30.6035 5.61523C31.2539 6.47656 31.5791 7.66309 31.5791 9.1748V9.31543ZM28.6172 9.13086C28.6172 7.44336 28.125 6.59961 27.1406 6.59961C26.4375 6.59961 25.9688 6.85156 25.7344 7.35547V11.0996C25.9922 11.627 26.4668 11.8906 27.1582 11.8906C28.1016 11.8906 28.5879 11.0762 28.6172 9.44727V9.13086ZM36.5889 9.85156L38.1709 4.49023H41.3438L37.4678 15.5908L37.3008 15.9951C36.75 17.2256 35.7773 17.8408 34.3828 17.8408C33.9961 17.8408 33.5889 17.7822 33.1611 17.665V15.5469H33.5479C33.9639 15.5469 34.2803 15.4854 34.4971 15.3623C34.7197 15.2451 34.8838 15.0312 34.9893 14.7207L35.2266 14.0879L31.9219 4.49023H35.0859L36.5889 9.85156ZM47.874 7.1709L46.8984 7.10059C45.9668 7.10059 45.3691 7.39355 45.1055 7.97949V14H42.1436V4.49023H44.9209L45.0176 5.71191C45.5156 4.78027 46.21 4.31445 47.1006 4.31445C47.417 4.31445 47.6924 4.34961 47.9268 4.41992L47.874 7.1709ZM52.0664 14H49.0957V4.49023H52.0664V14ZM48.9199 2.03809C48.9199 1.61621 49.0723 1.27051 49.377 1.00098C49.6816 0.731445 50.0771 0.59668 50.5635 0.59668C51.0498 0.59668 51.4453 0.731445 51.75 1.00098C52.0547 1.27051 52.207 1.61621 52.207 2.03809C52.207 2.45996 52.0547 2.80566 51.75 3.0752C51.4453 3.34473 51.0498 3.47949 50.5635 3.47949C50.0771 3.47949 49.6816 3.34473 49.377 3.0752C49.0723 2.80566 48.9199 2.45996 48.9199 2.03809ZM53.5518 9.1748C53.5518 8.21387 53.71 7.36426 54.0264 6.62598C54.3428 5.8877 54.7969 5.31934 55.3887 4.9209C55.9805 4.5166 56.6689 4.31445 57.4541 4.31445C58.4443 4.31445 59.2178 4.64844 59.7744 5.31641L59.8799 4.49023H62.5693V13.6396C62.5693 14.4775 62.373 15.2041 61.9805 15.8193C61.5938 16.4404 61.0312 16.915 60.293 17.2432C59.5547 17.5771 58.6992 17.7441 57.7266 17.7441C57.0293 17.7441 56.3525 17.6123 55.6963 17.3486C55.0459 17.085 54.5479 16.7422 54.2021 16.3203L55.4414 14.5801C55.9922 15.2305 56.7188 15.5557 57.6211 15.5557C58.9336 15.5557 59.5898 14.8818 59.5898 13.5342V13.2354C59.0215 13.8623 58.3037 14.1758 57.4365 14.1758C56.2764 14.1758 55.3389 13.7334 54.624 12.8486C53.9092 11.958 53.5518 10.7686 53.5518 9.28027V9.1748ZM56.5225 9.35938C56.5225 10.1387 56.6689 10.7568 56.9619 11.2139C57.2549 11.665 57.665 11.8906 58.1924 11.8906C58.8311 11.8906 59.2969 11.6768 59.5898 11.249V7.25C59.3027 6.81641 58.8428 6.59961 58.21 6.59961C57.6826 6.59961 57.2695 6.83691 56.9707 7.31152C56.6719 7.78027 56.5225 8.46289 56.5225 9.35938ZM67.1484 5.50977C67.7812 4.71289 68.5898 4.31445 69.5742 4.31445C70.623 4.31445 71.4141 4.625 71.9473 5.24609C72.4805 5.86719 72.7529 6.78418 72.7646 7.99707V14H69.7939V8.06738C69.7939 7.56348 69.6914 7.19434 69.4863 6.95996C69.2812 6.71973 68.9326 6.59961 68.4404 6.59961C67.8311 6.59961 67.4004 6.79297 67.1484 7.17969V14H64.1865V0.5H67.1484V5.50977ZM77.8623 2.12598V4.49023H79.4268V6.54688H77.8623V10.8975C77.8623 11.2549 77.9268 11.5039 78.0557 11.6445C78.1846 11.7852 78.4395 11.8555 78.8203 11.8555C79.1133 11.8555 79.3594 11.8379 79.5586 11.8027V13.9209C79.0254 14.0908 78.4688 14.1758 77.8887 14.1758C76.8691 14.1758 76.1162 13.9355 75.6299 13.4551C75.1436 12.9746 74.9004 12.2451 74.9004 11.2666V6.54688H73.6875V4.49023H74.9004V2.12598H77.8623ZM94.0605 8.76172C94.0605 9.65234 93.8027 10.335 93.2871 10.8096C92.7773 11.2842 92.0537 11.5215 91.1162 11.5215C90.1787 11.5215 89.4316 11.2109 88.875 10.5898C88.3242 9.96289 88.0488 9.12207 88.0488 8.06738V7.07422C88.0488 6.05469 88.3271 5.23438 88.8838 4.61328C89.4463 3.98633 90.1904 3.67285 91.1162 3.67285C92.0713 3.67285 92.8008 3.91602 93.3047 4.40234C93.8145 4.88281 94.0693 5.55957 94.0693 6.43262H92.6982C92.6982 5.87012 92.5635 5.46875 92.2939 5.22852C92.0244 4.98242 91.6318 4.85938 91.1162 4.85938C90.5771 4.85938 90.1582 5.05859 89.8594 5.45703C89.5664 5.84961 89.417 6.37695 89.4111 7.03906V8.12012C89.4111 8.80566 89.5605 9.34766 89.8594 9.74609C90.1582 10.1387 90.5771 10.335 91.1162 10.335C91.6377 10.335 92.0303 10.2178 92.2939 9.9834C92.5576 9.74316 92.6895 9.33594 92.6895 8.76172H94.0605ZM86.0713 7.59277C86.0713 8.55957 86.2881 9.46191 86.7217 10.2998C87.1611 11.1377 87.7822 11.8115 88.585 12.3213C89.3877 12.8252 90.2725 13.0771 91.2393 13.0771C92.2002 13.0771 93.0791 12.8252 93.876 12.3213C94.6787 11.8174 95.2998 11.1465 95.7393 10.3086C96.1787 9.4707 96.3984 8.56543 96.3984 7.59277C96.3984 6.62012 96.1787 5.71777 95.7393 4.88574C95.2998 4.04785 94.6787 3.37988 93.876 2.88184C93.0732 2.37793 92.1943 2.12598 91.2393 2.12598C90.3076 2.12598 89.4404 2.36621 88.6377 2.84668C87.8408 3.32715 87.2139 3.98926 86.7568 4.83301C86.2998 5.67676 86.0713 6.59668 86.0713 7.59277ZM84.999 7.59277C84.999 6.40918 85.2715 5.31055 85.8164 4.29688C86.3672 3.2832 87.126 2.48633 88.0928 1.90625C89.0654 1.32031 90.1143 1.02734 91.2393 1.02734C92.3643 1.02734 93.4102 1.32031 94.377 1.90625C95.3496 2.48633 96.1084 3.2832 96.6533 4.29688C97.2041 5.31055 97.4795 6.40918 97.4795 7.59277C97.4795 8.78809 97.2012 9.89551 96.6445 10.915C96.0879 11.9287 95.3262 12.7256 94.3594 13.3057C93.3984 13.8857 92.3584 14.1758 91.2393 14.1758C90.1084 14.1758 89.0596 13.8828 88.0928 13.2969C87.1318 12.7109 86.376 11.9111 85.8252 10.8975C85.2744 9.88379 84.999 8.78223 84.999 7.59277ZM112.579 14H103.649V12.0664L107.763 7.74219C108.776 6.58789 109.283 5.6709 109.283 4.99121C109.283 4.44043 109.163 4.02148 108.923 3.73438C108.683 3.44727 108.334 3.30371 107.877 3.30371C107.426 3.30371 107.06 3.49707 106.778 3.88379C106.497 4.26465 106.356 4.74219 106.356 5.31641H103.386C103.386 4.53125 103.582 3.80762 103.975 3.14551C104.367 2.47754 104.912 1.95605 105.609 1.58105C106.307 1.20605 107.086 1.01855 107.947 1.01855C109.33 1.01855 110.394 1.33789 111.138 1.97656C111.888 2.61523 112.263 3.53223 112.263 4.72754C112.263 5.23145 112.169 5.72363 111.981 6.2041C111.794 6.67871 111.501 7.17969 111.103 7.70703C110.71 8.22852 110.074 8.92871 109.195 9.80762L107.543 11.7148H112.579V14ZM122.959 8.77051C122.959 10.499 122.569 11.832 121.79 12.7695C121.017 13.707 119.924 14.1758 118.512 14.1758C117.088 14.1758 115.986 13.7041 115.207 12.7607C114.428 11.8174 114.038 10.4873 114.038 8.77051V6.43262C114.038 4.7041 114.425 3.37109 115.198 2.43359C115.978 1.49609 117.076 1.02734 118.494 1.02734C119.912 1.02734 121.011 1.49902 121.79 2.44238C122.569 3.38574 122.959 4.71875 122.959 6.44141V8.77051ZM119.997 6.05469C119.997 5.13477 119.877 4.44922 119.637 3.99805C119.396 3.54102 119.016 3.3125 118.494 3.3125C117.984 3.3125 117.612 3.52344 117.378 3.94531C117.149 4.36719 117.026 5.00586 117.009 5.86133V9.13086C117.009 10.0859 117.129 10.7861 117.369 11.2314C117.609 11.6709 117.99 11.8906 118.512 11.8906C119.016 11.8906 119.388 11.6768 119.628 11.249C119.868 10.8154 119.991 10.1387 119.997 9.21875V6.05469ZM133.427 14H124.497V12.0664L128.61 7.74219C129.624 6.58789 130.131 5.6709 130.131 4.99121C130.131 4.44043 130.011 4.02148 129.771 3.73438C129.53 3.44727 129.182 3.30371 128.725 3.30371C128.273 3.30371 127.907 3.49707 127.626 3.88379C127.345 4.26465 127.204 4.74219 127.204 5.31641H124.233C124.233 4.53125 124.43 3.80762 124.822 3.14551C125.215 2.47754 125.76 1.95605 126.457 1.58105C127.154 1.20605 127.934 1.01855 128.795 1.01855C130.178 1.01855 131.241 1.33789 131.985 1.97656C132.735 2.61523 133.11 3.53223 133.11 4.72754C133.11 5.23145 133.017 5.72363 132.829 6.2041C132.642 6.67871 132.349 7.17969 131.95 7.70703C131.558 8.22852 130.922 8.92871 130.043 9.80762L128.391 11.7148H133.427V14ZM141.486 14H138.516V4.54297L135.598 5.39551V3.14551L141.214 1.20312H141.486V14ZM150.012 14V1.20312H154.608C156.255 1.20312 157.506 1.50488 158.361 2.1084C159.223 2.71191 159.653 3.58789 159.653 4.73633C159.653 5.39844 159.501 5.96387 159.196 6.43262C158.892 6.90137 158.443 7.24707 157.852 7.46973C158.52 7.64551 159.032 7.97363 159.39 8.4541C159.747 8.93457 159.926 9.52051 159.926 10.2119C159.926 11.4658 159.527 12.4092 158.73 13.042C157.939 13.6689 156.765 13.9883 155.206 14H150.012ZM153.097 8.55957V11.627H155.118C155.675 11.627 156.103 11.501 156.401 11.249C156.7 10.9912 156.85 10.6309 156.85 10.168C156.85 9.10156 156.319 8.56543 155.259 8.55957H153.097ZM153.097 6.53809H154.705C155.379 6.53223 155.859 6.40918 156.146 6.16895C156.434 5.92871 156.577 5.57422 156.577 5.10547C156.577 4.56641 156.422 4.17969 156.111 3.94531C155.801 3.70508 155.3 3.58496 154.608 3.58496H153.097V6.53809ZM161.121 9.15723C161.121 8.20801 161.306 7.36426 161.675 6.62598C162.044 5.88184 162.574 5.31055 163.266 4.91211C163.957 4.51367 164.769 4.31445 165.7 4.31445C167.124 4.31445 168.246 4.75684 169.066 5.6416C169.887 6.52051 170.297 7.71875 170.297 9.23633V9.3418C170.297 10.8242 169.884 12.002 169.058 12.875C168.237 13.7422 167.124 14.1758 165.718 14.1758C164.364 14.1758 163.277 13.7715 162.457 12.9629C161.637 12.1484 161.194 11.0469 161.13 9.6582L161.121 9.15723ZM164.083 9.3418C164.083 10.2207 164.221 10.8652 164.496 11.2754C164.771 11.6855 165.179 11.8906 165.718 11.8906C166.772 11.8906 167.312 11.0791 167.335 9.45605V9.15723C167.335 7.45215 166.79 6.59961 165.7 6.59961C164.71 6.59961 164.174 7.33496 164.092 8.80566L164.083 9.3418ZM174.322 4.49023L174.419 5.60645C175.075 4.74512 175.98 4.31445 177.135 4.31445C178.125 4.31445 178.863 4.61035 179.35 5.20215C179.842 5.79395 180.097 6.68457 180.114 7.87402V14H177.144V7.99707C177.144 7.5166 177.047 7.16504 176.854 6.94238C176.66 6.71387 176.309 6.59961 175.799 6.59961C175.219 6.59961 174.788 6.82812 174.507 7.28516V14H171.545V4.49023H174.322ZM181.415 9.1748C181.415 8.21387 181.573 7.36426 181.89 6.62598C182.206 5.8877 182.66 5.31934 183.252 4.9209C183.844 4.5166 184.532 4.31445 185.317 4.31445C186.308 4.31445 187.081 4.64844 187.638 5.31641L187.743 4.49023H190.433V13.6396C190.433 14.4775 190.236 15.2041 189.844 15.8193C189.457 16.4404 188.895 16.915 188.156 17.2432C187.418 17.5771 186.562 17.7441 185.59 17.7441C184.893 17.7441 184.216 17.6123 183.56 17.3486C182.909 17.085 182.411 16.7422 182.065 16.3203L183.305 14.5801C183.855 15.2305 184.582 15.5557 185.484 15.5557C186.797 15.5557 187.453 14.8818 187.453 13.5342V13.2354C186.885 13.8623 186.167 14.1758 185.3 14.1758C184.14 14.1758 183.202 13.7334 182.487 12.8486C181.772 11.958 181.415 10.7686 181.415 9.28027V9.1748ZM184.386 9.35938C184.386 10.1387 184.532 10.7568 184.825 11.2139C185.118 11.665 185.528 11.8906 186.056 11.8906C186.694 11.8906 187.16 11.6768 187.453 11.249V7.25C187.166 6.81641 186.706 6.59961 186.073 6.59961C185.546 6.59961 185.133 6.83691 184.834 7.31152C184.535 7.78027 184.386 8.46289 184.386 9.35938ZM197.473 14C197.367 13.8066 197.273 13.5225 197.191 13.1475C196.646 13.833 195.885 14.1758 194.906 14.1758C194.01 14.1758 193.248 13.9062 192.621 13.3672C191.994 12.8223 191.681 12.1396 191.681 11.3193C191.681 10.2881 192.062 9.50879 192.823 8.98145C193.585 8.4541 194.692 8.19043 196.146 8.19043H197.06V7.68945C197.06 6.81641 196.682 6.37988 195.926 6.37988C195.223 6.37988 194.871 6.72559 194.871 7.41699H191.909C191.909 6.49707 192.299 5.75 193.078 5.17578C193.863 4.60156 194.862 4.31445 196.075 4.31445C197.288 4.31445 198.246 4.61035 198.949 5.20215C199.652 5.79395 200.013 6.60547 200.03 7.63672V11.8467C200.042 12.7197 200.177 13.3877 200.435 13.8506V14H197.473ZM195.618 12.0664C195.987 12.0664 196.292 11.9873 196.532 11.8291C196.778 11.6709 196.954 11.4922 197.06 11.293V9.77246H196.198C195.167 9.77246 194.651 10.2354 194.651 11.1611C194.651 11.4307 194.742 11.6504 194.924 11.8203C195.105 11.9844 195.337 12.0664 195.618 12.0664ZM204.803 14H201.832V0.5H204.803V14ZM208.468 11.126C208.937 11.126 209.326 11.2666 209.637 11.5479C209.947 11.8232 210.103 12.1777 210.103 12.6113C210.103 13.0449 209.947 13.4023 209.637 13.6836C209.326 13.959 208.937 14.0967 208.468 14.0967C207.993 14.0967 207.601 13.9561 207.29 13.6748C206.985 13.3936 206.833 13.0391 206.833 12.6113C206.833 12.1836 206.985 11.8291 207.29 11.5479C207.601 11.2666 207.993 11.126 208.468 11.126ZM216.105 11.8906C216.521 11.8906 216.844 11.7793 217.072 11.5566C217.301 11.3281 217.412 11.0117 217.406 10.6074H220.184C220.184 11.6504 219.809 12.5059 219.059 13.1738C218.314 13.8418 217.354 14.1758 216.176 14.1758C214.793 14.1758 213.703 13.7422 212.906 12.875C212.109 12.0078 211.711 10.8066 211.711 9.27148V9.14844C211.711 8.1875 211.887 7.34082 212.238 6.6084C212.596 5.87012 213.108 5.30469 213.776 4.91211C214.444 4.51367 215.235 4.31445 216.149 4.31445C217.386 4.31445 218.367 4.65723 219.094 5.34277C219.82 6.02832 220.184 6.95703 220.184 8.12891H217.406C217.406 7.63672 217.286 7.25879 217.046 6.99512C216.806 6.73145 216.483 6.59961 216.079 6.59961C215.312 6.59961 214.863 7.08887 214.734 8.06738C214.693 8.37793 214.673 8.80566 214.673 9.35059C214.673 10.3057 214.787 10.9678 215.016 11.3369C215.244 11.7061 215.607 11.8906 216.105 11.8906ZM221.062 9.15723C221.062 8.20801 221.247 7.36426 221.616 6.62598C221.985 5.88184 222.516 5.31055 223.207 4.91211C223.898 4.51367 224.71 4.31445 225.642 4.31445C227.065 4.31445 228.188 4.75684 229.008 5.6416C229.828 6.52051 230.238 7.71875 230.238 9.23633V9.3418C230.238 10.8242 229.825 12.002 228.999 12.875C228.179 13.7422 227.065 14.1758 225.659 14.1758C224.306 14.1758 223.219 13.7715 222.398 12.9629C221.578 12.1484 221.136 11.0469 221.071 9.6582L221.062 9.15723ZM224.024 9.3418C224.024 10.2207 224.162 10.8652 224.438 11.2754C224.713 11.6855 225.12 11.8906 225.659 11.8906C226.714 11.8906 227.253 11.0791 227.276 9.45605V9.15723C227.276 7.45215 226.731 6.59961 225.642 6.59961C224.651 6.59961 224.115 7.33496 224.033 8.80566L224.024 9.3418ZM233.376 11.126C233.845 11.126 234.234 11.2666 234.545 11.5479C234.855 11.8232 235.011 12.1777 235.011 12.6113C235.011 13.0449 234.855 13.4023 234.545 13.6836C234.234 13.959 233.845 14.0967 233.376 14.0967C232.901 14.0967 232.509 13.9561 232.198 13.6748C231.894 13.3936 231.741 13.0391 231.741 12.6113C231.741 12.1836 231.894 11.8291 232.198 11.5479C232.509 11.2666 232.901 11.126 233.376 11.126ZM248.88 11.6094H244.652L243.914 14H240.618L245.312 1.20312H248.212L252.94 14H249.627L248.88 11.6094ZM245.391 9.22754H248.142L246.762 4.78906L245.391 9.22754ZM256.869 14H253.898V0.5H256.869V14ZM261.826 14H258.855V0.5H261.826V14ZM273.894 7.1709L272.918 7.10059C271.986 7.10059 271.389 7.39355 271.125 7.97949V14H268.163V4.49023H270.94L271.037 5.71191C271.535 4.78027 272.229 4.31445 273.12 4.31445C273.437 4.31445 273.712 4.34961 273.946 4.41992L273.894 7.1709ZM278.086 14H275.115V4.49023H278.086V14ZM274.939 2.03809C274.939 1.61621 275.092 1.27051 275.396 1.00098C275.701 0.731445 276.097 0.59668 276.583 0.59668C277.069 0.59668 277.465 0.731445 277.77 1.00098C278.074 1.27051 278.227 1.61621 278.227 2.03809C278.227 2.45996 278.074 2.80566 277.77 3.0752C277.465 3.34473 277.069 3.47949 276.583 3.47949C276.097 3.47949 275.701 3.34473 275.396 3.0752C275.092 2.80566 274.939 2.45996 274.939 2.03809ZM279.571 9.1748C279.571 8.21387 279.729 7.36426 280.046 6.62598C280.362 5.8877 280.816 5.31934 281.408 4.9209C282 4.5166 282.688 4.31445 283.474 4.31445C284.464 4.31445 285.237 4.64844 285.794 5.31641L285.899 4.49023H288.589V13.6396C288.589 14.4775 288.393 15.2041 288 15.8193C287.613 16.4404 287.051 16.915 286.312 17.2432C285.574 17.5771 284.719 17.7441 283.746 17.7441C283.049 17.7441 282.372 17.6123 281.716 17.3486C281.065 17.085 280.567 16.7422 280.222 16.3203L281.461 14.5801C282.012 15.2305 282.738 15.5557 283.641 15.5557C284.953 15.5557 285.609 14.8818 285.609 13.5342V13.2354C285.041 13.8623 284.323 14.1758 283.456 14.1758C282.296 14.1758 281.358 13.7334 280.644 12.8486C279.929 11.958 279.571 10.7686 279.571 9.28027V9.1748ZM282.542 9.35938C282.542 10.1387 282.688 10.7568 282.981 11.2139C283.274 11.665 283.685 11.8906 284.212 11.8906C284.851 11.8906 285.316 11.6768 285.609 11.249V7.25C285.322 6.81641 284.862 6.59961 284.229 6.59961C283.702 6.59961 283.289 6.83691 282.99 7.31152C282.691 7.78027 282.542 8.46289 282.542 9.35938ZM293.168 5.50977C293.801 4.71289 294.609 4.31445 295.594 4.31445C296.643 4.31445 297.434 4.625 297.967 5.24609C298.5 5.86719 298.772 6.78418 298.784 7.99707V14H295.813V8.06738C295.813 7.56348 295.711 7.19434 295.506 6.95996C295.301 6.71973 294.952 6.59961 294.46 6.59961C293.851 6.59961 293.42 6.79297 293.168 7.17969V14H290.206V0.5H293.168V5.50977ZM303.882 2.12598V4.49023H305.446V6.54688H303.882V10.8975C303.882 11.2549 303.946 11.5039 304.075 11.6445C304.204 11.7852 304.459 11.8555 304.84 11.8555C305.133 11.8555 305.379 11.8379 305.578 11.8027V13.9209C305.045 14.0908 304.488 14.1758 303.908 14.1758C302.889 14.1758 302.136 13.9355 301.649 13.4551C301.163 12.9746 300.92 12.2451 300.92 11.2666V6.54688H299.707V4.49023H300.92V2.12598H303.882ZM311.599 11.3281C311.599 11.0762 311.467 10.874 311.203 10.7217C310.939 10.5693 310.438 10.4111 309.7 10.2471C308.962 10.083 308.353 9.86914 307.872 9.60547C307.392 9.33594 307.025 9.01074 306.773 8.62988C306.521 8.24902 306.396 7.8125 306.396 7.32031C306.396 6.44727 306.756 5.72949 307.477 5.16699C308.197 4.59863 309.141 4.31445 310.307 4.31445C311.561 4.31445 312.568 4.59863 313.33 5.16699C314.092 5.73535 314.473 6.48242 314.473 7.4082H311.502C311.502 6.64648 311.101 6.26562 310.298 6.26562C309.987 6.26562 309.727 6.35352 309.516 6.5293C309.305 6.69922 309.199 6.91309 309.199 7.1709C309.199 7.43457 309.328 7.64844 309.586 7.8125C309.844 7.97656 310.254 8.11133 310.816 8.2168C311.385 8.32227 311.883 8.44824 312.311 8.59473C313.74 9.08691 314.455 9.96875 314.455 11.2402C314.455 12.1074 314.068 12.8135 313.295 13.3584C312.527 13.9033 311.531 14.1758 310.307 14.1758C309.492 14.1758 308.766 14.0293 308.127 13.7363C307.488 13.4434 306.99 13.0449 306.633 12.541C306.275 12.0371 306.097 11.5068 306.097 10.9502H308.865C308.877 11.3896 309.023 11.7119 309.305 11.917C309.586 12.1162 309.946 12.2158 310.386 12.2158C310.79 12.2158 311.092 12.1338 311.291 11.9697C311.496 11.8057 311.599 11.5918 311.599 11.3281ZM326.083 7.1709L325.107 7.10059C324.176 7.10059 323.578 7.39355 323.314 7.97949V14H320.353V4.49023H323.13L323.227 5.71191C323.725 4.78027 324.419 4.31445 325.31 4.31445C325.626 4.31445 325.901 4.34961 326.136 4.41992L326.083 7.1709ZM331.576 14.1758C330.117 14.1758 328.937 13.7422 328.034 12.875C327.132 12.002 326.681 10.8682 326.681 9.47363V9.22754C326.681 8.25488 326.859 7.39648 327.217 6.65234C327.58 5.9082 328.107 5.33398 328.799 4.92969C329.49 4.51953 330.311 4.31445 331.26 4.31445C332.596 4.31445 333.65 4.73047 334.424 5.5625C335.197 6.38867 335.584 7.54297 335.584 9.02539V10.1768H329.695C329.801 10.71 330.032 11.1289 330.39 11.4336C330.747 11.7383 331.21 11.8906 331.778 11.8906C332.716 11.8906 333.448 11.5625 333.976 10.9062L335.329 12.5059C334.96 13.0156 334.436 13.4229 333.756 13.7275C333.082 14.0264 332.355 14.1758 331.576 14.1758ZM331.242 6.59961C330.375 6.59961 329.859 7.17383 329.695 8.32227H332.684V8.09375C332.695 7.61914 332.575 7.25293 332.323 6.99512C332.071 6.73145 331.711 6.59961 331.242 6.59961ZM341.763 11.3281C341.763 11.0762 341.631 10.874 341.367 10.7217C341.104 10.5693 340.603 10.4111 339.864 10.2471C339.126 10.083 338.517 9.86914 338.036 9.60547C337.556 9.33594 337.189 9.01074 336.938 8.62988C336.686 8.24902 336.56 7.8125 336.56 7.32031C336.56 6.44727 336.92 5.72949 337.641 5.16699C338.361 4.59863 339.305 4.31445 340.471 4.31445C341.725 4.31445 342.732 4.59863 343.494 5.16699C344.256 5.73535 344.637 6.48242 344.637 7.4082H341.666C341.666 6.64648 341.265 6.26562 340.462 6.26562C340.151 6.26562 339.891 6.35352 339.68 6.5293C339.469 6.69922 339.363 6.91309 339.363 7.1709C339.363 7.43457 339.492 7.64844 339.75 7.8125C340.008 7.97656 340.418 8.11133 340.98 8.2168C341.549 8.32227 342.047 8.44824 342.475 8.59473C343.904 9.08691 344.619 9.96875 344.619 11.2402C344.619 12.1074 344.232 12.8135 343.459 13.3584C342.691 13.9033 341.695 14.1758 340.471 14.1758C339.656 14.1758 338.93 14.0293 338.291 13.7363C337.652 13.4434 337.154 13.0449 336.797 12.541C336.439 12.0371 336.261 11.5068 336.261 10.9502H339.029C339.041 11.3896 339.188 11.7119 339.469 11.917C339.75 12.1162 340.11 12.2158 340.55 12.2158C340.954 12.2158 341.256 12.1338 341.455 11.9697C341.66 11.8057 341.763 11.5918 341.763 11.3281ZM350.613 14.1758C349.154 14.1758 347.974 13.7422 347.071 12.875C346.169 12.002 345.718 10.8682 345.718 9.47363V9.22754C345.718 8.25488 345.896 7.39648 346.254 6.65234C346.617 5.9082 347.145 5.33398 347.836 4.92969C348.527 4.51953 349.348 4.31445 350.297 4.31445C351.633 4.31445 352.688 4.73047 353.461 5.5625C354.234 6.38867 354.621 7.54297 354.621 9.02539V10.1768H348.732C348.838 10.71 349.069 11.1289 349.427 11.4336C349.784 11.7383 350.247 11.8906 350.815 11.8906C351.753 11.8906 352.485 11.5625 353.013 10.9062L354.366 12.5059C353.997 13.0156 353.473 13.4229 352.793 13.7275C352.119 14.0264 351.393 14.1758 350.613 14.1758ZM350.279 6.59961C349.412 6.59961 348.896 7.17383 348.732 8.32227H351.721V8.09375C351.732 7.61914 351.612 7.25293 351.36 6.99512C351.108 6.73145 350.748 6.59961 350.279 6.59961ZM361.573 7.1709L360.598 7.10059C359.666 7.10059 359.068 7.39355 358.805 7.97949V14H355.843V4.49023H358.62L358.717 5.71191C359.215 4.78027 359.909 4.31445 360.8 4.31445C361.116 4.31445 361.392 4.34961 361.626 4.41992L361.573 7.1709ZM366.592 10.4756L368.095 4.49023H371.215L368.112 14H365.089L361.986 4.49023H365.115L366.592 10.4756ZM376.576 14.1758C375.117 14.1758 373.937 13.7422 373.034 12.875C372.132 12.002 371.681 10.8682 371.681 9.47363V9.22754C371.681 8.25488 371.859 7.39648 372.217 6.65234C372.58 5.9082 373.107 5.33398 373.799 4.92969C374.49 4.51953 375.311 4.31445 376.26 4.31445C377.596 4.31445 378.65 4.73047 379.424 5.5625C380.197 6.38867 380.584 7.54297 380.584 9.02539V10.1768H374.695C374.801 10.71 375.032 11.1289 375.39 11.4336C375.747 11.7383 376.21 11.8906 376.778 11.8906C377.716 11.8906 378.448 11.5625 378.976 10.9062L380.329 12.5059C379.96 13.0156 379.436 13.4229 378.756 13.7275C378.082 14.0264 377.355 14.1758 376.576 14.1758ZM376.242 6.59961C375.375 6.59961 374.859 7.17383 374.695 8.32227H377.684V8.09375C377.695 7.61914 377.575 7.25293 377.323 6.99512C377.071 6.73145 376.711 6.59961 376.242 6.59961ZM381.41 9.1748C381.41 7.66895 381.735 6.48242 382.386 5.61523C383.036 4.74805 383.944 4.31445 385.11 4.31445C385.96 4.31445 386.675 4.64844 387.255 5.31641V0.5H390.226V14H387.562L387.413 12.9805C386.804 13.7773 386.03 14.1758 385.093 14.1758C383.962 14.1758 383.065 13.7422 382.403 12.875C381.741 12.0078 381.41 10.7744 381.41 9.1748ZM384.372 9.35938C384.372 11.0469 384.864 11.8906 385.849 11.8906C386.505 11.8906 386.974 11.6152 387.255 11.0645V7.44336C386.985 6.88086 386.522 6.59961 385.866 6.59961C384.952 6.59961 384.457 7.33789 384.381 8.81445L384.372 9.35938Z" fill="#12171E" fill-opacity="0.654531"/>
</svg>
