<svg width="16" height="9" viewBox="0 0 16 9" fill="none" xmlns="http://www.w3.org/2000/svg">
<path d="M15.6337 1.91519C15.6342 2.07553 15.5988 2.23395 15.5301 2.37882C15.4614 2.52369 15.3611 2.65133 15.2365 2.75234L8.79688 7.93626C8.60484 8.09412 8.36395 8.18042 8.11535 8.18042C7.86676 8.18042 7.62587 8.09412 7.43382 7.93626L0.994169 2.56988C0.774988 2.38771 0.637153 2.12592 0.610987 1.84212C0.584821 1.55832 0.672466 1.27575 0.854643 1.05656C1.03682 0.837384 1.2986 0.69955 1.58241 0.673383C1.86621 0.647217 2.14878 0.734862 2.36796 0.917039L8.12072 5.71458L13.8735 1.07803C14.031 0.946787 14.2229 0.863418 14.4263 0.837789C14.6297 0.81216 14.8363 0.845342 15.0214 0.933411C15.2066 1.02148 15.3627 1.16075 15.4712 1.33474C15.5797 1.50873 15.636 1.71015 15.6337 1.91519Z" fill="#12171E" fill-opacity="0.654531"/>
</svg>
