<svg width="20" height="11" viewBox="0 0 20 11" fill="none" xmlns="http://www.w3.org/2000/svg">
<path d="M19.9167 2.40747C19.9174 2.61911 19.8707 2.82823 19.78 3.01945C19.6892 3.21067 19.5568 3.37914 19.3925 3.51247L10.8925 10.355C10.639 10.5633 10.321 10.6772 9.9929 10.6772C9.66477 10.6772 9.34681 10.5633 9.09332 10.355L0.593317 3.27164C0.30401 3.03117 0.122076 2.68563 0.0875376 2.31103C0.0529996 1.93643 0.168687 1.56345 0.40915 1.27414C0.649613 0.984831 0.995155 0.802896 1.36976 0.768359C1.74436 0.733821 2.11734 0.849508 2.40665 1.08997L9.99998 7.42247L17.5933 1.30247C17.8013 1.12924 18.0545 1.01919 18.323 0.985365C18.5915 0.951536 18.8641 0.995335 19.1085 1.11158C19.353 1.22783 19.559 1.41165 19.7022 1.64131C19.8454 1.87097 19.9198 2.13684 19.9167 2.40747Z" fill="white"/>
</svg>
