<svg width="199" height="37" viewBox="0 0 199 37" fill="none" xmlns="http://www.w3.org/2000/svg">
<path d="M86.2676 12.3288C86.2876 12.5986 86.2876 12.8668 86.2876 13.1351C86.2876 21.3445 80.0393 30.8041 68.6201 30.8041C65.102 30.8041 61.8337 29.7851 59.0834 28.0153C59.5829 28.0723 60.0639 28.0923 60.5834 28.0923C63.3784 28.0991 66.0943 27.1645 68.2933 25.4391C66.9974 25.4157 65.7412 24.9881 64.7 24.2162C63.6589 23.4442 62.8848 22.3664 62.4858 21.1333C62.8697 21.1903 63.2551 21.2288 63.659 21.2288C64.2156 21.2288 64.7752 21.1518 65.2947 21.0176C63.8884 20.7337 62.6238 19.9714 61.716 18.8604C60.8081 17.7493 60.3132 16.3582 60.3152 14.9234V14.8463C61.143 15.3073 62.1035 15.5956 63.121 15.6341C62.2686 15.0677 61.5697 14.2991 61.0865 13.3968C60.6034 12.4946 60.3511 11.4868 60.3522 10.4634C60.3522 9.31021 60.659 8.25263 61.197 7.33071C62.7574 9.25012 64.7035 10.8204 66.9094 11.9398C69.1153 13.0592 71.5317 13.7028 74.0021 13.8288C73.9065 13.3663 73.8479 12.8869 73.8479 12.4059C73.8475 11.5903 74.0079 10.7826 74.3198 10.029C74.6317 9.2754 75.0891 8.59068 75.6658 8.01396C76.2425 7.43724 76.9273 6.97985 77.6809 6.66792C78.4345 6.35599 79.2421 6.19564 80.0578 6.19605C81.8461 6.19605 83.4602 6.9453 84.5949 8.15705C85.9851 7.88821 87.3183 7.3807 88.5354 6.657C88.072 8.09201 87.1013 9.30883 85.8051 10.0795C87.0381 9.93887 88.2431 9.61462 89.3802 9.1175C88.531 10.3556 87.4786 11.4413 86.2676 12.3288Z" fill="#3E94FE"/>
<path d="M129.654 32.3705V19.735H133.916L134.55 14.7877H129.654V11.6366C129.654 10.209 130.051 9.23158 132.1 9.23158H134.696V4.82087C133.433 4.6855 132.164 4.62013 130.893 4.62508C127.125 4.62508 124.538 6.92524 124.538 11.1479V14.7785H120.303V19.7257H124.548V32.3705H129.654Z" fill="#3E94FE"/>
<path d="M18.5093 29.3101H18.4785C18.3829 29.3101 8.81992 29.2916 6.40721 28.6364C5.7553 28.4608 5.16096 28.117 4.68369 27.6395C4.20642 27.1619 3.86297 26.5674 3.68771 25.9154C3.25386 23.4678 3.04435 20.9857 3.0618 18.5C3.0506 16.0102 3.26577 13.5246 3.70467 11.0738C3.88488 10.4207 4.22992 9.82487 4.70668 9.34352C5.18344 8.86217 5.77592 8.51143 6.42725 8.32498C8.77367 7.70831 18.073 7.70831 18.4677 7.70831H18.5C18.5972 7.70831 28.1848 7.72681 30.5728 8.38202C31.8971 8.74123 32.9316 9.77569 33.2893 11.1C33.7363 13.5574 33.9475 16.0503 33.9167 18.5478C33.9275 21.0345 33.7118 23.5171 33.2723 25.9647C33.0948 26.616 32.7499 27.2095 32.272 27.6863C31.7942 28.1631 31.1999 28.5066 30.5482 28.6827C28.2048 29.304 18.904 29.3101 18.5093 29.3101ZM15.426 13.8827L15.4183 23.1327L23.4534 18.5077L15.426 13.8827Z" fill="#3E94FE"/>
<path d="M188.208 3.08331H172.792C168.534 3.08331 165.083 6.53445 165.083 10.7916V26.2083C165.083 30.4655 168.534 33.9166 172.792 33.9166H188.208C192.466 33.9166 195.917 30.4655 195.917 26.2083V10.7916C195.917 6.53445 192.466 3.08331 188.208 3.08331Z" stroke="#3E94FE" stroke-width="2" stroke-linecap="round" stroke-linejoin="round"/>
<path d="M186.667 17.5288C186.857 18.8118 186.638 20.1222 186.04 21.2735C185.443 22.4248 184.498 23.3585 183.339 23.9416C182.181 24.5248 180.868 24.7277 179.587 24.5217C178.306 24.3156 177.123 23.711 176.206 22.7938C175.289 21.8767 174.684 20.6936 174.478 19.413C174.272 18.1324 174.475 16.8195 175.058 15.6609C175.642 14.5023 176.575 13.5571 177.727 12.9597C178.878 12.3623 180.188 12.1431 181.471 12.3334C182.78 12.5274 183.992 13.1373 184.927 14.0728C185.863 15.0084 186.473 16.22 186.667 17.5288Z" stroke="#3E94FE" stroke-width="2" stroke-linecap="round" stroke-linejoin="round"/>
<path d="M188.979 10.0208H188.993" stroke="#3E94FE" stroke-width="2" stroke-linecap="round" stroke-linejoin="round"/>
</svg>
