<svg width="40" height="40" viewBox="0 0 40 40" fill="none" xmlns="http://www.w3.org/2000/svg">
<circle cx="19.7483" cy="19.7483" r="19.7483" fill="#3E94FE" fill-opacity="0.2"/>
<path d="M19.5 15.1875C18.7375 15.1875 18.0062 15.4904 17.4671 16.0296C16.9279 16.5687 16.625 17.3 16.625 18.0625C16.625 18.825 16.9279 19.5563 17.4671 20.0954C18.0062 20.6346 18.7375 20.9375 19.5 20.9375C20.2625 20.9375 20.9938 20.6346 21.5329 20.0954C22.0721 19.5563 22.375 18.825 22.375 18.0625C22.375 17.3 22.0721 16.5687 21.5329 16.0296C20.9938 15.4904 20.2625 15.1875 19.5 15.1875Z" fill="#3E94FE"/>
<path d="M16.1865 22.375C15.7107 22.375 15.1947 22.7171 15.1515 23.3194C15.1185 23.7722 15.1587 24.6448 15.8128 25.4081C16.4755 26.1844 17.637 26.6875 19.5 26.6875C21.363 26.6875 22.5245 26.1844 23.1886 25.4081C23.8412 24.6448 23.8815 23.7722 23.8499 23.3194C23.8067 22.7157 23.2892 22.375 22.8134 22.375H16.1865Z" fill="#3E94FE"/>
<path d="M23.6903 10.875H24.5312C25.1031 10.875 25.6516 11.1022 26.0559 11.5066C26.4603 11.9109 26.6875 12.4594 26.6875 13.0313V27.4062C26.6875 27.9781 26.4603 28.5266 26.0559 28.931C25.6516 29.3353 25.1031 29.5625 24.5312 29.5625H14.4688C13.8969 29.5625 13.3484 29.3353 12.9441 28.931C12.5397 28.5266 12.3125 27.9781 12.3125 27.4062V13.0313C12.3125 12.4594 12.5397 11.9109 12.9441 11.5066C13.3484 11.1022 13.8969 10.875 14.4688 10.875H15.3097C15.4584 10.4544 15.7339 10.0903 16.0982 9.83285C16.4625 9.5754 16.8977 9.43727 17.3438 9.4375H21.6562C22.1023 9.43727 22.5375 9.5754 22.9018 9.83285C23.2661 10.0903 23.5416 10.4544 23.6903 10.875ZM15.3097 12.3125H14.4688C14.2781 12.3125 14.0953 12.3882 13.9605 12.523C13.8257 12.6578 13.75 12.8406 13.75 13.0313V27.4062C13.75 27.5969 13.8257 27.7797 13.9605 27.9145C14.0953 28.0493 14.2781 28.125 14.4688 28.125H24.5312C24.7219 28.125 24.9047 28.0493 25.0395 27.9145C25.1743 27.7797 25.25 27.5969 25.25 27.4062V13.0313C25.25 12.8406 25.1743 12.6578 25.0395 12.523C24.9047 12.3882 24.7219 12.3125 24.5312 12.3125H23.6903C23.5416 12.7331 23.2661 13.0972 22.9018 13.3546C22.5375 13.6121 22.1023 13.7502 21.6562 13.75H17.3438C16.8977 13.7502 16.4625 13.6121 16.0982 13.3546C15.7339 13.0972 15.4584 12.7331 15.3097 12.3125ZM16.625 11.5938C16.625 11.7844 16.7007 11.9672 16.8355 12.102C16.9703 12.2368 17.1531 12.3125 17.3438 12.3125H21.6562C21.8469 12.3125 22.0297 12.2368 22.1645 12.102C22.2993 11.9672 22.375 11.7844 22.375 11.5938C22.375 11.4031 22.2993 11.2203 22.1645 11.0855C22.0297 10.9507 21.8469 10.875 21.6562 10.875H17.3438C17.1531 10.875 16.9703 10.9507 16.8355 11.0855C16.7007 11.2203 16.625 11.4031 16.625 11.5938Z" fill="#3E94FE"/>
</svg>
