<svg width="378" height="18" viewBox="0 0 378 18" fill="none" xmlns="http://www.w3.org/2000/svg">
<line y1="8.5" x2="173" y2="8.5" stroke="#E5E5E5"/>
<path d="M184.448 15.192C183.275 15.192 182.341 14.824 181.648 14.088C180.955 13.3413 180.608 12.4133 180.608 11.304C180.608 10.1947 180.955 9.272 181.648 8.536C182.341 7.8 183.275 7.432 184.448 7.432C185.611 7.432 186.539 7.80533 187.232 8.552C187.936 9.288 188.288 10.2053 188.288 11.304C188.288 12.4133 187.936 13.3413 187.232 14.088C186.539 14.824 185.611 15.192 184.448 15.192ZM182.64 13.208C183.088 13.6987 183.691 13.944 184.448 13.944C185.205 13.944 185.803 13.6987 186.24 13.208C186.677 12.7067 186.896 12.072 186.896 11.304C186.896 10.5467 186.677 9.92267 186.24 9.432C185.803 8.93067 185.205 8.68 184.448 8.68C183.691 8.68 183.088 8.93067 182.64 9.432C182.203 9.92267 181.984 10.552 181.984 11.32C181.984 12.0773 182.203 12.7067 182.64 13.208ZM190.091 15V7.624H191.483V9.304C191.621 8.71733 191.893 8.27467 192.299 7.976C192.704 7.66667 193.152 7.512 193.643 7.512C193.931 7.512 194.155 7.53333 194.315 7.576V8.856C194.155 8.824 193.925 8.808 193.627 8.808C192.933 8.808 192.4 9.08533 192.027 9.64C191.664 10.1947 191.483 10.904 191.483 11.768V15H190.091Z" fill="#E5E5E5"/>
<line x1="205" y1="8.5" x2="378" y2="8.5" stroke="#E5E5E5"/>
</svg>
