<svg width="11" height="21" viewBox="0 0 11 21" fill="none" xmlns="http://www.w3.org/2000/svg">
<path d="M8.59253 20.4167C8.38089 20.4174 8.17177 20.3707 7.98055 20.28C7.78933 20.1892 7.62086 20.0568 7.48753 19.8925L0.645029 11.3925C0.436663 11.139 0.322754 10.821 0.322754 10.4929C0.322754 10.1648 0.436663 9.84681 0.645029 9.59332L7.72836 1.09332C7.96883 0.80401 8.31437 0.622076 8.68897 0.587538C9.06357 0.553 9.43655 0.668687 9.72586 0.90915C10.0152 1.14961 10.1971 1.49515 10.2316 1.86976C10.2662 2.24436 10.1505 2.61734 9.91003 2.90665L3.57753 10.5L9.69753 18.0933C9.87076 18.3013 9.98081 18.5545 10.0146 18.823C10.0485 19.0915 10.0047 19.3641 9.88842 19.6085C9.77217 19.853 9.58835 20.059 9.35869 20.2022C9.12903 20.3454 8.86316 20.4198 8.59253 20.4167Z" fill="white"/>
</svg>
