<svg width="22" height="15" viewBox="0 0 22 15" fill="none" xmlns="http://www.w3.org/2000/svg">
<path fill-rule="evenodd" clip-rule="evenodd" d="M0.5 7.50003C0.5 7.30112 0.579018 7.11035 0.71967 6.9697C0.860322 6.82905 1.05109 6.75003 1.25 6.75003L18.9395 6.75003L14.219 2.03103C14.0782 1.8902 13.9991 1.69919 13.9991 1.50003C13.9991 1.30087 14.0782 1.10986 14.219 0.969029C14.3598 0.828199 14.5508 0.749083 14.75 0.749083C14.9492 0.749083 15.1402 0.828199 15.281 0.969029L21.281 6.96903C21.3508 7.0387 21.4063 7.12146 21.4441 7.21258C21.4819 7.3037 21.5013 7.40138 21.5013 7.50003C21.5013 7.59868 21.4819 7.69636 21.4441 7.78748C21.4063 7.8786 21.3508 7.96136 21.281 8.03103L15.281 14.031C15.1402 14.1719 14.9492 14.251 14.75 14.251C14.5508 14.251 14.3598 14.1719 14.219 14.031C14.0782 13.8902 13.9991 13.6992 13.9991 13.5C13.9991 13.3009 14.0782 13.1099 14.219 12.969L18.9395 8.25003H1.25C1.05109 8.25003 0.860322 8.17101 0.71967 8.03036C0.579018 7.88971 0.5 7.69894 0.5 7.50003Z" fill="white"/>
</svg>
